<svg xmlns="http://www.w3.org/2000/svg" width="203.828" height="203.827" viewBox="0 0 203.828 203.827">
  <g id="Group_188" data-name="Group 188" opacity="0.25">
    <circle id="Ellipse_58" data-name="Ellipse 58" cx="2.962" cy="2.962" r="2.962" transform="translate(101.914 0) rotate(45)" fill="#cdee1f"/>
    <circle id="Ellipse_59" data-name="Ellipse 59" cx="2.962" cy="2.962" r="2.962" transform="translate(111.685 9.772) rotate(45)" fill="#cdee1f"/>
    <circle id="Ellipse_60" data-name="Ellipse 60" cx="2.962" cy="2.962" r="2.962" transform="translate(121.458 19.545) rotate(45)" fill="#cdee1f"/>
    <circle id="Ellipse_61" data-name="Ellipse 61" cx="2.962" cy="2.962" r="2.962" transform="translate(131.231 29.317) rotate(45)" fill="#cdee1f"/>
    <circle id="Ellipse_62" data-name="Ellipse 62" cx="2.962" cy="2.962" r="2.962" transform="translate(141.004 39.09) rotate(45)" fill="#cdee1f"/>
    <circle id="Ellipse_63" data-name="Ellipse 63" cx="2.962" cy="2.962" r="2.962" transform="translate(150.775 48.862) rotate(45)" fill="#cdee1f"/>
    <circle id="Ellipse_64" data-name="Ellipse 64" cx="2.962" cy="2.962" r="2.962" transform="translate(160.55 58.635) rotate(45)" fill="#cdee1f"/>
    <circle id="Ellipse_65" data-name="Ellipse 65" cx="2.962" cy="2.962" r="2.962" transform="translate(170.321 68.407) rotate(45)" fill="#cdee1f"/>
    <circle id="Ellipse_66" data-name="Ellipse 66" cx="2.962" cy="2.962" r="2.962" transform="translate(180.094 78.18) rotate(45)" fill="#cdee1f"/>
    <circle id="Ellipse_67" data-name="Ellipse 67" cx="2.962" cy="2.962" r="2.962" transform="translate(189.867 87.953) rotate(45)" fill="#cdee1f"/>
    <circle id="Ellipse_68" data-name="Ellipse 68" cx="2.962" cy="2.962" r="2.962" transform="translate(199.639 97.725) rotate(45)" fill="#cdee1f"/>
    <circle id="Ellipse_69" data-name="Ellipse 69" cx="2.962" cy="2.962" r="2.962" transform="translate(92.141 9.772) rotate(45)" fill="#cdee1f"/>
    <circle id="Ellipse_70" data-name="Ellipse 70" cx="2.962" cy="2.962" r="2.962" transform="translate(101.914 19.545) rotate(45)" fill="#cdee1f"/>
    <circle id="Ellipse_71" data-name="Ellipse 71" cx="2.962" cy="2.962" r="2.962" transform="translate(111.685 29.317) rotate(45)" fill="#cdee1f"/>
    <circle id="Ellipse_72" data-name="Ellipse 72" cx="2.962" cy="2.962" r="2.962" transform="translate(121.458 39.09) rotate(45)" fill="#cdee1f"/>
    <circle id="Ellipse_73" data-name="Ellipse 73" cx="2.962" cy="2.962" r="2.962" transform="translate(131.231 48.862) rotate(45)" fill="#cdee1f"/>
    <circle id="Ellipse_74" data-name="Ellipse 74" cx="2.962" cy="2.962" r="2.962" transform="translate(141.004 58.635) rotate(45)" fill="#cdee1f"/>
    <circle id="Ellipse_75" data-name="Ellipse 75" cx="2.962" cy="2.962" r="2.962" transform="translate(150.775 68.407) rotate(45)" fill="#cdee1f"/>
    <circle id="Ellipse_76" data-name="Ellipse 76" cx="2.962" cy="2.962" r="2.962" transform="translate(160.55 78.18) rotate(45)" fill="#cdee1f"/>
    <circle id="Ellipse_77" data-name="Ellipse 77" cx="2.962" cy="2.962" r="2.962" transform="translate(170.321 87.953) rotate(45)" fill="#cdee1f"/>
    <circle id="Ellipse_78" data-name="Ellipse 78" cx="2.962" cy="2.962" r="2.962" transform="translate(180.094 97.725) rotate(45)" fill="#cdee1f"/>
    <circle id="Ellipse_79" data-name="Ellipse 79" cx="2.962" cy="2.962" r="2.962" transform="translate(189.867 107.498) rotate(45)" fill="#cdee1f"/>
    <circle id="Ellipse_80" data-name="Ellipse 80" cx="2.962" cy="2.962" r="2.962" transform="translate(82.368 19.545) rotate(45)" fill="#cdee1f"/>
    <circle id="Ellipse_81" data-name="Ellipse 81" cx="2.962" cy="2.962" r="2.962" transform="translate(92.141 29.317) rotate(45)" fill="#cdee1f"/>
    <circle id="Ellipse_82" data-name="Ellipse 82" cx="2.962" cy="2.962" r="2.962" transform="translate(101.914 39.09) rotate(45)" fill="#cdee1f"/>
    <circle id="Ellipse_83" data-name="Ellipse 83" cx="2.962" cy="2.962" r="2.962" transform="translate(111.685 48.862) rotate(45)" fill="#cdee1f"/>
    <circle id="Ellipse_84" data-name="Ellipse 84" cx="2.962" cy="2.962" r="2.962" transform="translate(121.458 58.635) rotate(45)" fill="#cdee1f"/>
    <circle id="Ellipse_85" data-name="Ellipse 85" cx="2.962" cy="2.962" r="2.962" transform="translate(131.231 68.407) rotate(45)" fill="#cdee1f"/>
    <circle id="Ellipse_86" data-name="Ellipse 86" cx="2.962" cy="2.962" r="2.962" transform="translate(141.004 78.18) rotate(45)" fill="#cdee1f"/>
    <circle id="Ellipse_87" data-name="Ellipse 87" cx="2.962" cy="2.962" r="2.962" transform="translate(150.775 87.953) rotate(45)" fill="#cdee1f"/>
    <circle id="Ellipse_88" data-name="Ellipse 88" cx="2.962" cy="2.962" r="2.962" transform="translate(160.55 97.725) rotate(45)" fill="#cdee1f"/>
    <circle id="Ellipse_89" data-name="Ellipse 89" cx="2.962" cy="2.962" r="2.962" transform="translate(170.321 107.498) rotate(45)" fill="#cdee1f"/>
    <circle id="Ellipse_90" data-name="Ellipse 90" cx="2.962" cy="2.962" r="2.962" transform="translate(180.094 117.271) rotate(45)" fill="#cdee1f"/>
    <circle id="Ellipse_91" data-name="Ellipse 91" cx="2.962" cy="2.962" r="2.962" transform="translate(72.595 29.317) rotate(45)" fill="#cdee1f"/>
    <circle id="Ellipse_92" data-name="Ellipse 92" cx="2.962" cy="2.962" r="2.962" transform="translate(82.368 39.09) rotate(45)" fill="#cdee1f"/>
    <circle id="Ellipse_93" data-name="Ellipse 93" cx="2.962" cy="2.962" r="2.962" transform="translate(92.141 48.862) rotate(45)" fill="#cdee1f"/>
    <circle id="Ellipse_94" data-name="Ellipse 94" cx="2.962" cy="2.962" r="2.962" transform="translate(101.914 58.635) rotate(45)" fill="#cdee1f"/>
    <circle id="Ellipse_95" data-name="Ellipse 95" cx="2.962" cy="2.962" r="2.962" transform="translate(111.685 68.407) rotate(45)" fill="#cdee1f"/>
    <circle id="Ellipse_96" data-name="Ellipse 96" cx="2.962" cy="2.962" r="2.962" transform="translate(121.458 78.18) rotate(45)" fill="#cdee1f"/>
    <circle id="Ellipse_97" data-name="Ellipse 97" cx="2.962" cy="2.962" r="2.962" transform="translate(131.231 87.953) rotate(45)" fill="#cdee1f"/>
    <circle id="Ellipse_98" data-name="Ellipse 98" cx="2.962" cy="2.962" r="2.962" transform="translate(141.004 97.725) rotate(45)" fill="#cdee1f"/>
    <circle id="Ellipse_99" data-name="Ellipse 99" cx="2.962" cy="2.962" r="2.962" transform="translate(150.775 107.498) rotate(45)" fill="#cdee1f"/>
    <circle id="Ellipse_100" data-name="Ellipse 100" cx="2.962" cy="2.962" r="2.962" transform="translate(160.55 117.271) rotate(45)" fill="#cdee1f"/>
    <circle id="Ellipse_101" data-name="Ellipse 101" cx="2.962" cy="2.962" r="2.962" transform="translate(170.321 127.043) rotate(45)" fill="#cdee1f"/>
    <circle id="Ellipse_102" data-name="Ellipse 102" cx="2.962" cy="2.962" r="2.962" transform="translate(62.824 39.09) rotate(45)" fill="#cdee1f"/>
    <circle id="Ellipse_103" data-name="Ellipse 103" cx="2.962" cy="2.962" r="2.962" transform="translate(72.595 48.862) rotate(45)" fill="#cdee1f"/>
    <circle id="Ellipse_104" data-name="Ellipse 104" cx="2.962" cy="2.962" r="2.962" transform="translate(82.368 58.635) rotate(45)" fill="#cdee1f"/>
    <circle id="Ellipse_105" data-name="Ellipse 105" cx="2.962" cy="2.962" r="2.962" transform="translate(92.141 68.407) rotate(45)" fill="#cdee1f"/>
    <circle id="Ellipse_106" data-name="Ellipse 106" cx="2.962" cy="2.962" r="2.962" transform="translate(101.914 78.18) rotate(45)" fill="#cdee1f"/>
    <circle id="Ellipse_107" data-name="Ellipse 107" cx="2.962" cy="2.962" r="2.962" transform="translate(111.685 87.953) rotate(45)" fill="#cdee1f"/>
    <circle id="Ellipse_108" data-name="Ellipse 108" cx="2.962" cy="2.962" r="2.962" transform="translate(121.458 97.725) rotate(45)" fill="#cdee1f"/>
    <circle id="Ellipse_109" data-name="Ellipse 109" cx="2.962" cy="2.962" r="2.962" transform="translate(131.231 107.498) rotate(45)" fill="#cdee1f"/>
    <circle id="Ellipse_110" data-name="Ellipse 110" cx="2.962" cy="2.962" r="2.962" transform="translate(141.004 117.271) rotate(45)" fill="#cdee1f"/>
    <circle id="Ellipse_111" data-name="Ellipse 111" cx="2.962" cy="2.962" r="2.962" transform="translate(150.775 127.043) rotate(45)" fill="#cdee1f"/>
    <circle id="Ellipse_112" data-name="Ellipse 112" cx="2.962" cy="2.962" r="2.962" transform="translate(160.55 136.815) rotate(45)" fill="#cdee1f"/>
    <circle id="Ellipse_113" data-name="Ellipse 113" cx="2.962" cy="2.962" r="2.962" transform="translate(53.051 48.862) rotate(45)" fill="#cdee1f"/>
    <circle id="Ellipse_114" data-name="Ellipse 114" cx="2.962" cy="2.962" r="2.962" transform="translate(62.824 58.635) rotate(45)" fill="#cdee1f"/>
    <circle id="Ellipse_115" data-name="Ellipse 115" cx="2.962" cy="2.962" r="2.962" transform="translate(72.595 68.407) rotate(45)" fill="#cdee1f"/>
    <circle id="Ellipse_116" data-name="Ellipse 116" cx="2.962" cy="2.962" r="2.962" transform="translate(82.368 78.18) rotate(45)" fill="#cdee1f"/>
    <circle id="Ellipse_117" data-name="Ellipse 117" cx="2.962" cy="2.962" r="2.962" transform="translate(92.141 87.953) rotate(45)" fill="#cdee1f"/>
    <circle id="Ellipse_118" data-name="Ellipse 118" cx="2.962" cy="2.962" r="2.962" transform="translate(101.914 97.725) rotate(45)" fill="#cdee1f"/>
    <circle id="Ellipse_119" data-name="Ellipse 119" cx="2.962" cy="2.962" r="2.962" transform="translate(111.685 107.498) rotate(45)" fill="#cdee1f"/>
    <circle id="Ellipse_120" data-name="Ellipse 120" cx="2.962" cy="2.962" r="2.962" transform="translate(121.458 117.271) rotate(45)" fill="#cdee1f"/>
    <circle id="Ellipse_121" data-name="Ellipse 121" cx="2.962" cy="2.962" r="2.962" transform="translate(131.231 127.043) rotate(45)" fill="#cdee1f"/>
    <circle id="Ellipse_122" data-name="Ellipse 122" cx="2.962" cy="2.962" r="2.962" transform="translate(141.004 136.815) rotate(45)" fill="#cdee1f"/>
    <circle id="Ellipse_123" data-name="Ellipse 123" cx="2.962" cy="2.962" r="2.962" transform="translate(150.775 146.587) rotate(45)" fill="#cdee1f"/>
    <circle id="Ellipse_124" data-name="Ellipse 124" cx="2.962" cy="2.962" r="2.962" transform="translate(43.278 58.635) rotate(45)" fill="#cdee1f"/>
    <circle id="Ellipse_125" data-name="Ellipse 125" cx="2.962" cy="2.962" r="2.962" transform="translate(53.051 68.407) rotate(45)" fill="#cdee1f"/>
    <circle id="Ellipse_126" data-name="Ellipse 126" cx="2.962" cy="2.962" r="2.962" transform="translate(62.824 78.18) rotate(45)" fill="#cdee1f"/>
    <circle id="Ellipse_127" data-name="Ellipse 127" cx="2.962" cy="2.962" r="2.962" transform="translate(72.595 87.953) rotate(45)" fill="#cdee1f"/>
    <circle id="Ellipse_128" data-name="Ellipse 128" cx="2.962" cy="2.962" r="2.962" transform="translate(82.368 97.725) rotate(45)" fill="#cdee1f"/>
    <circle id="Ellipse_129" data-name="Ellipse 129" cx="2.962" cy="2.962" r="2.962" transform="translate(92.141 107.498) rotate(45)" fill="#cdee1f"/>
    <circle id="Ellipse_130" data-name="Ellipse 130" cx="2.962" cy="2.962" r="2.962" transform="translate(101.914 117.271) rotate(45)" fill="#cdee1f"/>
    <circle id="Ellipse_131" data-name="Ellipse 131" cx="2.962" cy="2.962" r="2.962" transform="translate(111.685 127.043) rotate(45)" fill="#cdee1f"/>
    <circle id="Ellipse_132" data-name="Ellipse 132" cx="2.962" cy="2.962" r="2.962" transform="translate(121.458 136.815) rotate(45)" fill="#cdee1f"/>
    <circle id="Ellipse_133" data-name="Ellipse 133" cx="2.962" cy="2.962" r="2.962" transform="translate(131.231 146.587) rotate(45)" fill="#cdee1f"/>
    <circle id="Ellipse_134" data-name="Ellipse 134" cx="2.962" cy="2.962" r="2.962" transform="translate(141.004 156.36) rotate(45)" fill="#cdee1f"/>
    <circle id="Ellipse_135" data-name="Ellipse 135" cx="2.962" cy="2.962" r="2.962" transform="translate(33.506 68.407) rotate(45)" fill="#cdee1f"/>
    <circle id="Ellipse_136" data-name="Ellipse 136" cx="2.962" cy="2.962" r="2.962" transform="translate(43.278 78.18) rotate(45)" fill="#cdee1f"/>
    <circle id="Ellipse_137" data-name="Ellipse 137" cx="2.962" cy="2.962" r="2.962" transform="translate(53.051 87.953) rotate(45)" fill="#cdee1f"/>
    <circle id="Ellipse_138" data-name="Ellipse 138" cx="2.962" cy="2.962" r="2.962" transform="translate(62.824 97.725) rotate(45)" fill="#cdee1f"/>
    <circle id="Ellipse_139" data-name="Ellipse 139" cx="2.962" cy="2.962" r="2.962" transform="translate(72.595 107.498) rotate(45)" fill="#cdee1f"/>
    <circle id="Ellipse_140" data-name="Ellipse 140" cx="2.962" cy="2.962" r="2.962" transform="translate(82.368 117.271) rotate(45)" fill="#cdee1f"/>
    <circle id="Ellipse_141" data-name="Ellipse 141" cx="2.962" cy="2.962" r="2.962" transform="translate(92.141 127.043) rotate(45)" fill="#cdee1f"/>
    <circle id="Ellipse_142" data-name="Ellipse 142" cx="2.962" cy="2.962" r="2.962" transform="translate(101.914 136.815) rotate(45)" fill="#cdee1f"/>
    <circle id="Ellipse_143" data-name="Ellipse 143" cx="2.962" cy="2.962" r="2.962" transform="translate(111.685 146.587) rotate(45)" fill="#cdee1f"/>
    <circle id="Ellipse_144" data-name="Ellipse 144" cx="2.962" cy="2.962" r="2.962" transform="translate(121.458 156.36) rotate(45)" fill="#cdee1f"/>
    <circle id="Ellipse_145" data-name="Ellipse 145" cx="2.962" cy="2.962" r="2.962" transform="translate(131.231 166.133) rotate(45)" fill="#cdee1f"/>
    <circle id="Ellipse_146" data-name="Ellipse 146" cx="2.962" cy="2.962" r="2.962" transform="translate(23.732 78.18) rotate(45)" fill="#cdee1f"/>
    <circle id="Ellipse_147" data-name="Ellipse 147" cx="2.962" cy="2.962" r="2.962" transform="translate(33.506 87.953) rotate(45)" fill="#cdee1f"/>
    <circle id="Ellipse_148" data-name="Ellipse 148" cx="2.962" cy="2.962" r="2.962" transform="translate(43.278 97.725) rotate(45)" fill="#cdee1f"/>
    <circle id="Ellipse_149" data-name="Ellipse 149" cx="2.962" cy="2.962" r="2.962" transform="translate(53.051 107.498) rotate(45)" fill="#cdee1f"/>
    <circle id="Ellipse_150" data-name="Ellipse 150" cx="2.962" cy="2.962" r="2.962" transform="translate(62.824 117.271) rotate(45)" fill="#cdee1f"/>
    <circle id="Ellipse_151" data-name="Ellipse 151" cx="2.962" cy="2.962" r="2.962" transform="translate(72.595 127.043) rotate(45)" fill="#cdee1f"/>
    <circle id="Ellipse_152" data-name="Ellipse 152" cx="2.962" cy="2.962" r="2.962" transform="translate(82.368 136.815) rotate(45)" fill="#cdee1f"/>
    <circle id="Ellipse_153" data-name="Ellipse 153" cx="2.962" cy="2.962" r="2.962" transform="translate(92.141 146.587) rotate(45)" fill="#cdee1f"/>
    <circle id="Ellipse_154" data-name="Ellipse 154" cx="2.962" cy="2.962" r="2.962" transform="translate(101.914 156.36) rotate(45)" fill="#cdee1f"/>
    <circle id="Ellipse_155" data-name="Ellipse 155" cx="2.962" cy="2.962" r="2.962" transform="translate(111.685 166.133) rotate(45)" fill="#cdee1f"/>
    <circle id="Ellipse_156" data-name="Ellipse 156" cx="2.962" cy="2.962" r="2.962" transform="translate(121.458 175.905) rotate(45)" fill="#cdee1f"/>
    <circle id="Ellipse_157" data-name="Ellipse 157" cx="2.962" cy="2.962" r="2.962" transform="translate(13.961 87.953) rotate(45)" fill="#cdee1f"/>
    <circle id="Ellipse_158" data-name="Ellipse 158" cx="2.962" cy="2.962" r="2.962" transform="translate(23.732 97.725) rotate(45)" fill="#cdee1f"/>
    <circle id="Ellipse_159" data-name="Ellipse 159" cx="2.962" cy="2.962" r="2.962" transform="translate(33.506 107.498) rotate(45)" fill="#cdee1f"/>
    <circle id="Ellipse_160" data-name="Ellipse 160" cx="2.962" cy="2.962" r="2.962" transform="translate(43.278 117.271) rotate(45)" fill="#cdee1f"/>
    <circle id="Ellipse_161" data-name="Ellipse 161" cx="2.962" cy="2.962" r="2.962" transform="translate(53.051 127.043) rotate(45)" fill="#cdee1f"/>
    <circle id="Ellipse_162" data-name="Ellipse 162" cx="2.962" cy="2.962" r="2.962" transform="translate(62.824 136.815) rotate(45)" fill="#cdee1f"/>
    <circle id="Ellipse_163" data-name="Ellipse 163" cx="2.962" cy="2.962" r="2.962" transform="translate(72.595 146.587) rotate(45)" fill="#cdee1f"/>
    <circle id="Ellipse_164" data-name="Ellipse 164" cx="2.962" cy="2.962" r="2.962" transform="translate(82.368 156.36) rotate(45)" fill="#cdee1f"/>
    <circle id="Ellipse_165" data-name="Ellipse 165" cx="2.962" cy="2.962" r="2.962" transform="translate(92.141 166.133) rotate(45)" fill="#cdee1f"/>
    <circle id="Ellipse_166" data-name="Ellipse 166" cx="2.962" cy="2.962" r="2.962" transform="translate(101.914 175.905) rotate(45)" fill="#cdee1f"/>
    <circle id="Ellipse_167" data-name="Ellipse 167" cx="2.962" cy="2.962" r="2.962" transform="translate(111.685 185.677) rotate(45)" fill="#cdee1f"/>
    <circle id="Ellipse_168" data-name="Ellipse 168" cx="2.962" cy="2.962" r="2.962" transform="translate(4.188 97.725) rotate(45)" fill="#cdee1f"/>
    <circle id="Ellipse_169" data-name="Ellipse 169" cx="2.962" cy="2.962" r="2.962" transform="translate(13.961 107.498) rotate(45)" fill="#cdee1f"/>
    <circle id="Ellipse_170" data-name="Ellipse 170" cx="2.962" cy="2.962" r="2.962" transform="translate(23.732 117.271) rotate(45)" fill="#cdee1f"/>
    <circle id="Ellipse_171" data-name="Ellipse 171" cx="2.962" cy="2.962" r="2.962" transform="translate(33.506 127.043) rotate(45)" fill="#cdee1f"/>
    <circle id="Ellipse_172" data-name="Ellipse 172" cx="2.962" cy="2.962" r="2.962" transform="translate(43.278 136.815) rotate(45)" fill="#cdee1f"/>
    <circle id="Ellipse_173" data-name="Ellipse 173" cx="2.962" cy="2.962" r="2.962" transform="translate(53.051 146.587) rotate(45)" fill="#cdee1f"/>
    <circle id="Ellipse_174" data-name="Ellipse 174" cx="2.962" cy="2.962" r="2.962" transform="translate(62.824 156.36) rotate(45)" fill="#cdee1f"/>
    <circle id="Ellipse_175" data-name="Ellipse 175" cx="2.962" cy="2.962" r="2.962" transform="translate(72.595 166.133) rotate(45)" fill="#cdee1f"/>
    <circle id="Ellipse_176" data-name="Ellipse 176" cx="2.962" cy="2.962" r="2.962" transform="translate(82.368 175.905) rotate(45)" fill="#cdee1f"/>
    <circle id="Ellipse_177" data-name="Ellipse 177" cx="2.962" cy="2.962" r="2.962" transform="translate(92.141 185.677) rotate(45)" fill="#cdee1f"/>
    <circle id="Ellipse_178" data-name="Ellipse 178" cx="2.962" cy="2.962" r="2.962" transform="translate(101.914 195.45) rotate(45)" fill="#cdee1f"/>
  </g>
</svg>
