<svg id="coins-stacks-with-arrow-upwards" xmlns="http://www.w3.org/2000/svg" width="73.278" height="70.502" viewBox="0 0 73.278 70.502">
  <g id="Group_245" data-name="Group 245">
    <g id="Group_244" data-name="Group 244">
      <g id="Group_241" data-name="Group 241" transform="translate(23.035)">
        <path id="Path_599" data-name="Path 599" d="M71.558,39.321c-7.25,0-13.13-2.351-13.13-5.25v5.25c0,2.9,5.88,5.251,13.13,5.251s13.129-2.348,13.129-5.251v-5.25C84.685,36.973,78.81,39.321,71.558,39.321Z" transform="translate(-58.428 -22.027)"/>
        <path id="Path_600" data-name="Path 600" d="M71.558,3.52c-7.25,0-13.13,2.35-13.13,5.252v5.251c0,2.9,5.88,5.25,13.13,5.25s13.129-2.35,13.129-5.25V8.772C84.685,5.87,78.81,3.52,71.558,3.52Zm0,9.188c-7.215,0-11.815-2.332-11.815-3.938s4.6-3.94,11.815-3.94S83.369,7.163,83.369,8.77,78.772,12.708,71.558,12.708Z" transform="translate(-58.428 -3.52)"/>
        <path id="Path_601" data-name="Path 601" d="M86.622,11.3c-1.517-.245-2.145-.406-2.145-.655,0-.211.375-.429,1.534-.429a13.069,13.069,0,0,1,2.572.258l.521-.859a13.953,13.953,0,0,0-2.593-.251V8.695H84.763v.723c-1.91.16-3.016.686-3.016,1.356,0,.74,1.3,1.121,3.213,1.394,1.321.19,1.893.372,1.893.662,0,.307-.7.473-1.717.473a13.285,13.285,0,0,1-2.96-.335l-.533.889a15.386,15.386,0,0,0,3.033.33v.723H86.42v-.774c2.055-.153,3.178-.732,3.178-1.412S88.744,11.625,86.622,11.3Z" transform="translate(-72.491 -6.655)"/>
        <path id="Path_602" data-name="Path 602" d="M58.428,51.477a.071.071,0,0,1,.021.005c0-.028-.021-.052-.021-.077Z" transform="translate(-58.428 -32.527)"/>
        <path id="Path_603" data-name="Path 603" d="M80.42,56.658a28.543,28.543,0,0,1-7.362-.9,5.467,5.467,0,0,1,.68,2.636v2.766a28.992,28.992,0,0,0,6.682.755c7.252,0,13.129-2.35,13.129-5.254V51.4C93.547,54.308,87.673,56.658,80.42,56.658Z" transform="translate(-67.29 -32.526)"/>
        <path id="Path_604" data-name="Path 604" d="M81.466,73.995a29.125,29.125,0,0,1-6.682-.754v3.714c3.2-1.942,8.031-2.868,12.662-2.868a33.209,33.209,0,0,1,6.943.72,2.277,2.277,0,0,0,.2-.814V68.74C94.593,71.642,88.718,73.995,81.466,73.995Z" transform="translate(-68.336 -43.028)"/>
      </g>
      <g id="Group_242" data-name="Group 242" transform="translate(0 20.611)">
        <path id="Path_605" data-name="Path 605" d="M13.129,91.611C5.879,91.611,0,89.258,0,86.359V91.61c0,2.9,5.879,5.25,13.129,5.25S26.26,94.515,26.26,91.61V86.359C26.258,89.258,20.381,91.611,13.129,91.611Z" transform="translate(0 -74.312)"/>
        <path id="Path_606" data-name="Path 606" d="M13.129,108.946C5.879,108.946,0,106.6,0,103.7v5.248c0,2.9,5.879,5.255,13.129,5.255s13.131-2.35,13.131-5.255V103.7C26.258,106.6,20.381,108.946,13.129,108.946Z" transform="translate(0 -84.815)"/>
        <path id="Path_607" data-name="Path 607" d="M13.129,126.284c-7.25,0-13.129-2.348-13.129-5.25v5.25c0,2.9,5.879,5.252,13.129,5.252s13.131-2.35,13.131-5.252v-5.25C26.258,123.936,20.381,126.284,13.129,126.284Z" transform="translate(0 -95.316)"/>
        <path id="Path_608" data-name="Path 608" d="M13.129,143.622C5.879,143.622,0,141.269,0,138.369v5.253c0,2.9,5.879,5.252,13.129,5.252s13.131-2.352,13.131-5.252v-5.253C26.258,141.269,20.381,143.622,13.129,143.622Z" transform="translate(0 -105.817)"/>
        <path id="Path_609" data-name="Path 609" d="M13.129,160.962c-7.25,0-13.129-2.35-13.129-5.25v5.25c0,2.9,5.879,5.252,13.129,5.252s13.131-2.35,13.131-5.252v-5.25C26.258,158.612,20.381,160.962,13.129,160.962Z" transform="translate(0 -116.323)"/>
        <path id="Path_610" data-name="Path 610" d="M13.129,55.8C5.879,55.8,0,58.151,0,61.052V66.3c0,2.9,5.879,5.251,13.129,5.251S26.26,69.206,26.26,66.3V61.052C26.258,58.151,20.381,55.8,13.129,55.8Zm0,9.192c-7.213,0-11.815-2.334-11.815-3.94s4.6-3.938,11.815-3.938,11.817,2.33,11.817,3.938S20.341,64.993,13.129,64.993Z" transform="translate(0 -55.801)"/>
        <path id="Path_611" data-name="Path 611" d="M28.188,63.595c-1.516-.246-2.143-.406-2.143-.657,0-.211.376-.427,1.534-.427a12.984,12.984,0,0,1,2.574.258l.518-.861a14.16,14.16,0,0,0-2.589-.251v-.669H26.33v.723c-1.91.16-3.016.687-3.016,1.357,0,.737,1.3,1.121,3.213,1.394,1.32.192,1.893.373,1.893.664,0,.307-.7.472-1.717.472a13.073,13.073,0,0,1-2.956-.336l-.537.889a15.088,15.088,0,0,0,3.033.329V67.2h1.749v-.775c2.052-.153,3.176-.73,3.176-1.411S30.313,63.914,28.188,63.595Z" transform="translate(-14.06 -58.944)"/>
      </g>
      <g id="Group_243" data-name="Group 243" transform="translate(29.016 34.282)">
        <path id="Path_612" data-name="Path 612" d="M86.729,126.285c-7.249,0-13.129-2.348-13.129-5.25v5.25c0,2.9,5.88,5.252,13.129,5.252s13.131-2.348,13.131-5.252v-5.25C99.86,123.937,93.981,126.285,86.729,126.285Z" transform="translate(-73.6 -108.987)"/>
        <path id="Path_613" data-name="Path 613" d="M86.729,143.616c-7.249,0-13.129-2.353-13.129-5.252v5.252c0,2.9,5.88,5.255,13.129,5.255s13.131-2.352,13.131-5.255v-5.252C99.86,141.266,93.981,143.616,86.729,143.616Z" transform="translate(-73.6 -119.485)"/>
        <path id="Path_614" data-name="Path 614" d="M86.729,160.962c-7.249,0-13.129-2.35-13.129-5.25v5.25c0,2.9,5.88,5.252,13.129,5.252s13.131-2.352,13.131-5.252v-5.25C99.86,158.612,93.981,160.962,86.729,160.962Z" transform="translate(-73.6 -129.993)"/>
        <path id="Path_615" data-name="Path 615" d="M86.729,90.476c-7.249,0-13.129,2.352-13.129,5.254v5.25c0,2.9,5.88,5.252,13.129,5.252s13.131-2.352,13.131-5.252V95.73C99.86,92.826,93.981,90.476,86.729,90.476Zm0,9.191c-7.214,0-11.813-2.331-11.813-3.94s4.6-3.938,11.813-3.938,11.816,2.33,11.816,3.938S93.945,99.667,86.729,99.667Z" transform="translate(-73.6 -90.476)"/>
        <path id="Path_616" data-name="Path 616" d="M101.794,98.267c-1.517-.242-2.144-.4-2.144-.656,0-.211.375-.422,1.534-.422a13.03,13.03,0,0,1,2.573.257l.521-.862a14.345,14.345,0,0,0-2.59-.252v-.669H99.936v.724c-1.911.158-3.018.684-3.018,1.356,0,.737,1.3,1.119,3.215,1.39,1.318.192,1.894.375,1.894.665,0,.307-.7.473-1.718.473a13.31,13.31,0,0,1-2.958-.336l-.533.891a14.892,14.892,0,0,0,3.032.329v.723H101.6V101.1c2.052-.152,3.178-.73,3.178-1.409S103.919,98.588,101.794,98.267Z" transform="translate(-87.665 -93.618)"/>
      </g>
    </g>
    <path id="Path_617" data-name="Path 617" d="M145.643,78.554h7.134v-41.4h5.433l-9-15.507-9,15.507h5.435Z" transform="translate(-84.932 -14.502)"/>
  </g>
</svg>
