<svg xmlns="http://www.w3.org/2000/svg" width="58.408" height="58.469" viewBox="0 0 58.408 58.469">
  <g id="cyber-security" transform="translate(-0.267)">
    <path id="Path_635" data-name="Path 635" d="M57.314,28.841l-2.027-.286c.014-.352.021-.7.021-1.035A27.525,27.525,0,0,0,2.444,16.775a.856.856,0,1,0,1.576.669q.362-.852.779-1.667a29,29,0,0,1,5.167-3.038,44.11,44.11,0,0,0-1.821,7.7A42.741,42.741,0,0,0,2.573,22q.119-.544.26-1.083a.856.856,0,1,0-1.656-.437A27.536,27.536,0,0,0,35.97,53.8a18.254,18.254,0,0,0,5.054,3.289l3,1.307a.856.856,0,0,0,.684,0l3-1.307a18.284,18.284,0,0,0,4.072-2.45.856.856,0,1,0-1.066-1.34,16.57,16.57,0,0,1-3.69,2.22l-2.656,1.158-2.656-1.158a16.538,16.538,0,0,1-4.92-3.3l-.021-.02a16.554,16.554,0,0,1-5-11.857v-9.82l2.333-.329a19.718,19.718,0,0,0,9.219-3.867l.833-.638a.35.35,0,0,1,.426,0l.833.639a19.717,19.717,0,0,0,9.219,3.866l2.333.329v9.82a16.6,16.6,0,0,1-3.777,10.526.856.856,0,0,0,1.322,1.089,18.319,18.319,0,0,0,4.167-11.614V30.409a1.59,1.59,0,0,0-1.362-1.567Zm-9.658-6.587a36.467,36.467,0,0,1,5.7,1.717,26.19,26.19,0,0,1,.242,3.549c0,.243,0,.492-.012.744a18.02,18.02,0,0,1-5.672-2.292q-.058-1.879-.256-3.718ZM35.222,9.662a41.185,41.185,0,0,1,8.238,2.171,41.412,41.412,0,0,1,2.179,8.251,87.147,87.147,0,0,0-9.252-1.163,87.087,87.087,0,0,0-1.165-9.26Zm-.569,9.143c-2.221-.131-4.52-.2-6.865-.2s-4.644.068-6.865.2a85.181,85.181,0,0,1,1.231-9.391,48.1,48.1,0,0,1,11.268,0A85.217,85.217,0,0,1,34.653,18.805ZM39.524,4.523A28.88,28.88,0,0,1,42.561,9.7a44.106,44.106,0,0,0-7.7-1.818A42.775,42.775,0,0,0,33.3,2.3,25.493,25.493,0,0,1,39.524,4.523ZM45.6,12.735a29,29,0,0,1,5.186,3.049A25.5,25.5,0,0,1,53.007,22a42.747,42.747,0,0,0-5.58-1.562A44.3,44.3,0,0,0,45.6,12.735Zm3.112-.328a34.35,34.35,0,0,0-3.931-1.887A34.445,34.445,0,0,0,42.9,6.592a26.117,26.117,0,0,1,5.816,5.814ZM31.337,1.955a36.461,36.461,0,0,1,1.716,5.7,49.613,49.613,0,0,0-10.53,0,36.483,36.483,0,0,1,1.715-5.694,26.019,26.019,0,0,1,7.1,0Zm-9.067.351a42.752,42.752,0,0,0-1.56,5.573,44.1,44.1,0,0,0-7.7,1.821,29,29,0,0,1,3.041-5.171A25.74,25.74,0,0,1,22.27,2.306ZM6.855,12.411A25.759,25.759,0,0,1,12.68,6.585a34.334,34.334,0,0,0-1.891,3.936A34.294,34.294,0,0,0,6.855,12.411Zm5.249-.573a41.167,41.167,0,0,1,8.249-2.175,87.118,87.118,0,0,0-1.164,9.259,87.1,87.1,0,0,0-9.259,1.165A41.165,41.165,0,0,1,12.1,11.838Zm18.8,34.016c-1.037.068-2.082.1-3.121.1a47.919,47.919,0,0,1-5.634-.331,85.211,85.211,0,0,1-1.231-9.392c2.221.131,4.52.2,6.865.2.754,0,1.513-.008,2.268-.022v3.929a18.258,18.258,0,0,0,.853,5.512Zm-10.556-.475A41.174,41.174,0,0,1,12.1,43.2a41.179,41.179,0,0,1-2.175-8.248,87.122,87.122,0,0,0,9.259,1.165A87.149,87.149,0,0,0,20.353,45.379Zm-4.3,5.14a28.987,28.987,0,0,1-3.045-5.176,44.117,44.117,0,0,0,7.7,1.82,42.727,42.727,0,0,0,1.562,5.577A25.5,25.5,0,0,1,16.051,50.519ZM2.568,33.036A42.758,42.758,0,0,0,8.146,34.6a44.1,44.1,0,0,0,1.821,7.7,28.985,28.985,0,0,1-5.177-3.045,25.5,25.5,0,0,1-2.221-6.22Zm7.112.118a48.1,48.1,0,0,1,0-11.267,85.188,85.188,0,0,1,9.392-1.231c-.131,2.221-.2,4.52-.2,6.865s.068,4.644.2,6.865a85.213,85.213,0,0,1-9.392-1.232Zm-1.764-10.9a49.613,49.613,0,0,0,0,10.53,36.477,36.477,0,0,1-5.7-1.716,26.019,26.019,0,0,1,0-7.1,36.48,36.48,0,0,1,5.693-1.715ZM6.864,42.635a34.329,34.329,0,0,0,3.925,1.885,34.333,34.333,0,0,0,1.884,3.925,26.13,26.13,0,0,1-5.81-5.809ZM24.238,53.086a36.474,36.474,0,0,1-1.716-5.7,49.578,49.578,0,0,0,5.265.28c1.246,0,2.5-.05,3.741-.143a18.272,18.272,0,0,0,1,1.983,31.73,31.73,0,0,1-1.189,3.574,26.07,26.07,0,0,1-7.1,0Zm9.524-1.711q.4.535.849,1.04-.65.178-1.307.321Q33.539,52.086,33.763,51.375Zm.1-22.878-2.444.345a1.59,1.59,0,0,0-1.362,1.567V34.7c-.755.015-1.514.022-2.268.022-2.376,0-4.719-.074-6.987-.215-.141-2.268-.215-4.611-.215-6.987s.074-4.719.215-6.987c2.268-.141,4.611-.215,6.987-.215s4.719.074,6.987.215c.141,2.268.215,4.611.215,6.987,0,.249,0,.505,0,.78q-.559.116-1.125.2Zm9.25-4.168-.833.638A18,18,0,0,1,36.7,27.856q0-.17,0-.335c0-2.345-.068-4.644-.2-6.865a85.226,85.226,0,0,1,9.386,1.23q.167,1.405.251,2.841l-.521-.4A2.066,2.066,0,0,0,43.111,24.328Z"/>
    <path id="Path_636" data-name="Path 636" d="M313.491,271.869a.856.856,0,0,0-.063-1.209,10.285,10.285,0,1,0,2.39,3.182.856.856,0,0,0-1.542.745,8.513,8.513,0,0,1,.851,3.734,8.6,8.6,0,1,1-2.846-6.388A.856.856,0,0,0,313.491,271.869Z" transform="translate(-262.166 -237.412)"/>
    <path id="Path_637" data-name="Path 637" d="M358.844,318.959,353.9,325.5l-1.17-.936a.856.856,0,0,0-1.07,1.337l1.857,1.485a.857.857,0,0,0,.535.188.871.871,0,0,0,.106-.007.856.856,0,0,0,.577-.333l5.478-7.242a.856.856,0,0,0-1.366-1.033Z" transform="translate(-310.987 -282.243)"/>
  </g>
</svg>
