<svg id="observeit-vector-logo" xmlns="http://www.w3.org/2000/svg" width="203.979" height="38.659" viewBox="0 0 203.979 38.659">
  <g id="Group_115" data-name="Group 115">
    <g id="Group_114" data-name="Group 114" transform="translate(0 0)">
      <g id="Group_113" data-name="Group 113" transform="translate(0 11.617)">
        <path id="Fill-1" d="M40.429,302.53a14.778,14.778,0,0,0-1.938-7.853,6.955,6.955,0,0,0-6.221-3.672,6.734,6.734,0,0,0-6.119,3.74,15.121,15.121,0,0,0-1.836,7.751,14.541,14.541,0,0,0,1.768,7.445,6.942,6.942,0,0,0,6.289,3.706c2.55,0,4.589-1.258,6.119-3.807a13.815,13.815,0,0,0,1.938-7.309m4.283-.136a13.75,13.75,0,0,1-3.332,9.349,11.4,11.4,0,0,1-8.975,3.977,11.415,11.415,0,0,1-8.941-3.875,13.206,13.206,0,0,1-3.366-9.281,14.419,14.419,0,0,1,3.06-9.315A11.126,11.126,0,0,1,32.372,289a11.353,11.353,0,0,1,9.315,4.147,14.2,14.2,0,0,1,3.026,9.247" transform="translate(-20.1 -289)" fill="#67b0ae"/>
      </g>
      <path id="Fill-4" d="M122.57,290.133a15.043,15.043,0,0,0-1.36-6.663c-1.156-2.448-2.856-3.671-5.167-3.671a5.821,5.821,0,0,0-5.065,3.06,11.022,11.022,0,0,0-1.7,5.949v3.6a11.491,11.491,0,0,0,1.836,6.527,5.373,5.373,0,0,0,4.521,2.754c2.176,0,3.909-1.326,5.269-3.977a17.131,17.131,0,0,0,1.666-7.581m4.385.34a15.84,15.84,0,0,1-2.686,9.315,9.005,9.005,0,0,1-7.785,4.283q-4.385,0-7.343-4.793a5.894,5.894,0,0,1-.918,3.332,2.859,2.859,0,0,1-2.924,1.462V266.2c2.652,0,3.977,1.632,3.977,4.929v11.014a8.679,8.679,0,0,1,3.128-3.434,7.764,7.764,0,0,1,4.317-1.326,8.817,8.817,0,0,1,7.717,4.249,15.115,15.115,0,0,1,2.516,8.839" transform="translate(-76.336 -265.752)" fill="#67b0ae"/>
      <path id="Fill-6" d="M200.543,318.987a6.021,6.021,0,0,1-3.468,5.269,13.011,13.011,0,0,1-6.493,1.53,13.246,13.246,0,0,1-5.473-1.122,7.269,7.269,0,0,1-3.909-3.807,3.987,3.987,0,0,1,1.02-.17,2.415,2.415,0,0,1,1.394.442,11.34,11.34,0,0,0,.986.816,9.5,9.5,0,0,0,5.3,1.564,7.693,7.693,0,0,0,4.011-.918,4.2,4.2,0,0,0,2.21-3.332c.306-3.366-1.292-5.507-4.759-6.425l-2.822-.68c-4.827-1.258-7.241-3.332-7.241-6.255a5.968,5.968,0,0,1,3.4-5.439,11.017,11.017,0,0,1,5.575-1.36,11.527,11.527,0,0,1,5.473,1.326,9.2,9.2,0,0,1,3.943,3.943,2.893,2.893,0,0,1-.884.17,8.5,8.5,0,0,1-2.992-1.462,10.11,10.11,0,0,0-4.929-1.5,5.828,5.828,0,0,0-3.672.952,3.725,3.725,0,0,0-1.6,3.264c0,2.142,1.564,3.6,4.725,4.351l2.89.714a11.225,11.225,0,0,1,5.235,2.754,7.035,7.035,0,0,1,2.074,5.371" transform="translate(-126.433 -287.467)" fill="#67b0ae"/>
      <path id="Fill-8" d="M260.295,317.6a2.241,2.241,0,0,1,1.7-2.482c4.181-1.122,6.221-3.536,6.187-7.241a6.6,6.6,0,0,0-1.9-4.963,7.173,7.173,0,0,0-5.065-1.768c-2.414,0-4.215,1.394-5.405,4.147a18.117,18.117,0,0,0-1.326,7.241,14.275,14.275,0,0,0,1.734,7.377,7.059,7.059,0,0,0,6.459,3.638,9.752,9.752,0,0,0,5.371-1.632,3.645,3.645,0,0,1,2.04-.68,1.917,1.917,0,0,1,1.564.782,15.724,15.724,0,0,1-9.451,3.672,11.021,11.021,0,0,1-8.907-3.807,14.029,14.029,0,0,1-2.992-9.349,14.91,14.91,0,0,1,2.89-9.383A10.315,10.315,0,0,1,261.824,299a12.3,12.3,0,0,1,7.241,2.04,7.427,7.427,0,0,1,3.264,6.459,8.634,8.634,0,0,1-3.943,7.309,14.82,14.82,0,0,1-8.091,2.788" transform="translate(-172.043 -287.401)" fill="#67b0ae"/>
      <path id="Fill-10" d="M341.992,299.087a1.547,1.547,0,0,1,.17.68A1.742,1.742,0,0,1,340.5,301.6a5.9,5.9,0,0,0-4.147,2.89,9.3,9.3,0,0,0-1.326,5v12.476c0,2.584-1.326,3.875-4.045,3.875v-16.59a23.835,23.835,0,0,0-.442-5.3,4.4,4.4,0,0,1-.136-1.122,4.289,4.289,0,0,1,.748-2.414,2.7,2.7,0,0,1,1.938-1.326,10.14,10.14,0,0,1,1.5,4.827,7.371,7.371,0,0,1,2.958-3.57,7.6,7.6,0,0,1,4.453-1.258" transform="translate(-224.912 -287.454)" fill="#67b0ae"/>
      <path id="Fill-12" d="M396.865,299.149l-8.295,26.618a5.248,5.248,0,0,1-1.02.136c-1.9,0-3.23-1.224-3.977-3.638L376.4,299.115c.34-.034.68-.068,1.02-.068,2.006,0,3.264,1.054,3.841,3.2l5.371,20.057,4.9-19.343c.68-2.618,1.972-3.909,3.943-3.909a3.818,3.818,0,0,1,1.394.1" transform="translate(-255.275 -287.414)" fill="#67b0ae"/>
      <path id="Fill-14" d="M448.795,317.6a2.212,2.212,0,0,1,1.7-2.482c4.181-1.122,6.255-3.536,6.187-7.241a6.479,6.479,0,0,0-1.9-4.963,7.173,7.173,0,0,0-5.065-1.768c-2.414,0-4.215,1.394-5.405,4.147a18.117,18.117,0,0,0-1.326,7.241,14.275,14.275,0,0,0,1.734,7.377,7.059,7.059,0,0,0,6.459,3.638,9.752,9.752,0,0,0,5.371-1.632,3.645,3.645,0,0,1,2.04-.68,1.917,1.917,0,0,1,1.564.782,15.724,15.724,0,0,1-9.451,3.672,11.067,11.067,0,0,1-8.907-3.807,14.029,14.029,0,0,1-2.992-9.349,14.91,14.91,0,0,1,2.89-9.383A10.315,10.315,0,0,1,450.324,299a12.3,12.3,0,0,1,7.241,2.04,7.427,7.427,0,0,1,3.264,6.459,8.634,8.634,0,0,1-3.943,7.309,15.015,15.015,0,0,1-8.091,2.788" transform="translate(-296.462 -287.401)" fill="#67b0ae"/>
      <path id="Fill-16" d="M555.255,308.449c-2.652,0-3.943-1.6-3.943-4.793V284.143c0-1.6.646-2.414,1.972-2.414s2.006.816,2.006,2.414v24.307Zm.68-32.5a2.618,2.618,0,1,1-5.235,0,2.325,2.325,0,0,1,.782-1.8,2.627,2.627,0,0,1,3.672,0,2.391,2.391,0,0,1,.782,1.8Z" transform="translate(-370.321 -270.504)" fill="#67b0ae"/>
      <g id="Group-20" transform="translate(189.973 0)">
        <path id="Path_226" data-name="Path 226" d="M430.806,301.551a6.8,6.8,0,0,1-3.705,1.088,6.329,6.329,0,0,1-5-2.278,7.9,7.9,0,0,1-1.836-5.269V278.774H418.6c-1.224,0-1.8-.51-1.8-1.564a1.334,1.334,0,0,1,.136-.612h3.332V264.8a1.925,1.925,0,0,1,.612-.1,2.872,2.872,0,0,1,2.516,1.6,5.623,5.623,0,0,1,.782,2.992V276.6h2.346a2.013,2.013,0,0,1,1.8,1.768,1.268,1.268,0,0,1-.068.408h-4.045v18.018a4.34,4.34,0,0,0,.986,2.754,2.713,2.713,0,0,0,2.584,1.19c.136-.034.442-.1.952-.2a3.933,3.933,0,0,1,.918-.136c.578,0,.986.374,1.156,1.156" transform="translate(-416.8 -264.7)" fill="#67b0ae"/>
      </g>
      <path id="Path_227" data-name="Path 227" d="M543.563,371.518l.782.51.034.238-.136.272-.306.2-.612.17-.442.068-.476-.068-.238.1-.51.238-.578.068h-.748l-.986-.068-.612-.238-.136-.544,2.448-.986,2.006-.884Z" transform="translate(-362.334 -334.66)" fill="#67b0ae"/>
      <path id="Path_228" data-name="Path 228" d="M561.322,370.3l-1.088,1.53-.034.238.136.272.306.2.612.17.442.068.476-.068.272.1.51.238.544.068h.748l.986-.068.646-.238.136-.544-2.482-.986-1.462-.714Z" transform="translate(-376.591 -334.462)" fill="#67b0ae"/>
      <path id="Path_229" data-name="Path 229" d="M544.7,302.927l.068-.51v-.238l.034-.238.068-.51.1-.51.034-.238.034-.272.068-.238.068-.238.068-.238.1-.238.1-.238.1-.238,3.6-.884-1.734,16.42-1.53-3.705-.1-3.841-.884-.85.034-.34.034-.544-.272-.2Z" transform="translate(-366.36 -286.807)" fill="#67b0ae"/>
      <path id="Path_230" data-name="Path 230" d="M563.453,302.927l-.068-.51v-.238l-.034-.238-.068-.51-.068-.51-.068-.238-.034-.272-.068-.238-.068-.238-.1-.238-.068-.238-.1-.238-.1-.238L559,298.1l1.734,16.42,1.5-3.705.136-3.841.884-.85-.034-.34-.068-.544.306-.2Z" transform="translate(-375.799 -286.807)" fill="#67b0ae"/>
    </g>
  </g>
</svg>
