<svg id="business-and-finance" xmlns="http://www.w3.org/2000/svg" width="60" height="58" viewBox="0 0 60 58">
  <path id="Path_618" data-name="Path 618" d="M12,21a9,9,0,1,0-9-9A9.01,9.01,0,0,0,12,21Zm1-8H11a3,3,0,0,1-3-3V7h3V5h2V7a3,3,0,0,1,3,3H14a1,1,0,0,0-1-1H10v1a1,1,0,0,0,1,1h2a3,3,0,0,1,3,3v3H13v2H11V17a3,3,0,0,1-3-3h2a1,1,0,0,0,1,1h3V14A1,1,0,0,0,13,13Z" transform="translate(-3 -3)"/>
  <path id="Path_619" data-name="Path 619" d="M47,15a6,6,0,1,0-6-6A6.006,6.006,0,0,0,47,15ZM47,5a4,4,0,1,1-4,4A4,4,0,0,1,47,5Z" transform="translate(-3 -3)"/>
  <circle id="Ellipse_196" data-name="Ellipse 196" cx="2" cy="2" r="2" transform="translate(42 4)"/>
  <circle id="Ellipse_197" data-name="Ellipse 197" cx="5" cy="5" r="5" transform="translate(50 12)"/>
  <path id="Path_620" data-name="Path 620" d="M31,27.658a3,3,0,0,1-5,0c-.434-.5-.607-.658-1-.658a2,2,0,0,0-1.6,3.2L28.5,37h7l5.1-6.8A2,2,0,0,0,39,27c-.39,0-.563.161-1,.659a3.007,3.007,0,0,1-5.007,0c-.436-.5-.61-.659-1-.659S31.433,27.161,31,27.658Z" transform="translate(-3 -3)"/>
  <path id="Path_621" data-name="Path 621" d="M4,49H19.07a12.674,12.674,0,0,1,1.1-4H19v2H17V45H15v2H13V45H11v2H9V45H7v2H5V45H4a1,1,0,0,0-1,1v2A1,1,0,0,0,4,49Z" transform="translate(-3 -3)"/>
  <path id="Path_622" data-name="Path 622" d="M60,51H59v2H57V51H55v2H53V51H51v2H49V51H47v2H45V51h-.035a12.618,12.618,0,0,1-.875,4H60a1,1,0,0,0,1-1V52A1,1,0,0,0,60,51Z" transform="translate(-3 -3)"/>
  <path id="Path_623" data-name="Path 623" d="M60,57H59v2H57V57H55v2H53V57H51v2H49V57H47v2H45V57H43.072a12.788,12.788,0,0,1-3.648,3.811A1,1,0,0,0,40,61H60a1,1,0,0,0,1-1V58A1,1,0,0,0,60,57Z" transform="translate(-3 -3)"/>
  <path id="Path_624" data-name="Path 624" d="M4,55H19.91a12.618,12.618,0,0,1-.875-4H19v2H17V51H15v2H13V51H11v2H9V51H7v2H5V51H4a1,1,0,0,0-1,1v2A1,1,0,0,0,4,55Z" transform="translate(-3 -3)"/>
  <path id="Path_625" data-name="Path 625" d="M60,45H59v2H57V45H55v2H53V45H51v2H49V45H47v2H45V45H43.834a12.674,12.674,0,0,1,1.1,4H60a1,1,0,0,0,1-1V46A1,1,0,0,0,60,45Z" transform="translate(-3 -3)"/>
  <path id="Path_626" data-name="Path 626" d="M60,39H59v2H57V39H55v2H53V39H51v2H49V39H47v2H45V39H43v2H41V39H40a.992.992,0,0,0-.822.452l1.487,1.3A12.626,12.626,0,0,1,42.671,43H60a1,1,0,0,0,1-1V40A1,1,0,0,0,60,39Z" transform="translate(-3 -3)"/>
  <path id="Path_627" data-name="Path 627" d="M20.928,57H19v2H17V57H15v2H13V57H11v2H9V57H7v2H5V57H4a1,1,0,0,0-1,1v2a1,1,0,0,0,1,1H24a.993.993,0,0,0,.576-.19A12.8,12.8,0,0,1,20.928,57Z" transform="translate(-3 -3)"/>
  <path id="Path_628" data-name="Path 628" d="M43,50.306a10.7,10.7,0,0,0-3.651-8.048L35.624,39H28.376l-3.725,3.258A10.695,10.695,0,0,0,31.693,61h.613A10.706,10.706,0,0,0,43,50.306ZM31,49h2a3,3,0,0,1,3,3v3H33v2H31V55a3,3,0,0,1-3-3h2a1,1,0,0,0,1,1h3V52a1,1,0,0,0-1-1H31a3,3,0,0,1-3-3V45h3V43h2v2a3,3,0,0,1,3,3H34a1,1,0,0,0-1-1H30v1A1,1,0,0,0,31,49Z" transform="translate(-3 -3)"/>
  <path id="Path_629" data-name="Path 629" d="M25.438,13a1,1,0,0,1,.971.758l3.132,12.529a3.4,3.4,0,0,1,1.761-1.2L28.348,13.273A3,3,0,0,0,25.438,11H22.95c.03.33.05.662.05,1s-.021.67-.05,1Z" transform="translate(-3 -3)"/>
  <path id="Path_630" data-name="Path 630" d="M36.685,10.821A1,1,0,0,1,37.669,10h1.4A8.047,8.047,0,0,1,39,9a8.047,8.047,0,0,1,.069-1h-1.4a3,3,0,0,0-2.951,2.463L32.074,25.006a2.813,2.813,0,0,1,1.89.78Z" transform="translate(-3 -3)"/>
  <path id="Path_631" data-name="Path 631" d="M36.614,21.138l-1.691,5.637A.816.816,0,0,0,35.5,27c.366,0,.551-.148,1-.657a4.885,4.885,0,0,1,.9-.851l1.134-3.779A1,1,0,0,1,39.488,21H51.08a6.29,6.29,0,0,1,0-2H39.488a2.982,2.982,0,0,0-2.874,2.138Z" transform="translate(-3 -3)"/>
</svg>
