<svg id="commvault-logo" xmlns="http://www.w3.org/2000/svg" width="192.872" height="31.722" viewBox="0 0 192.872 31.722">
  <path id="Path_207" data-name="Path 207" d="M794.371,456.315a1.217,1.217,0,1,0,1.216,1.217A1.217,1.217,0,0,0,794.371,456.315Zm.432,2.048-.456-.717h-.273v.717h-.261V456.7h.644a.681.681,0,0,1,.441.119.436.436,0,0,1,.144.358.407.407,0,0,1-.125.33.563.563,0,0,1-.314.123l.477.737Z" transform="translate(-639.009 -448.977)" fill="none"/>
  <path id="Path_208" data-name="Path 208" d="M798.5,459.725a.276.276,0,0,0,.038-.155.237.237,0,0,0-.034-.133.218.218,0,0,0-.084-.075.361.361,0,0,0-.117-.037.955.955,0,0,0-.133-.009h-.342v.531h.27c.058,0,.113,0,.166,0a.437.437,0,0,0,.139-.033A.212.212,0,0,0,798.5,459.725Z" transform="translate(-642.759 -451.385)" fill="none"/>
  <path id="Path_209" data-name="Path 209" d="M120.4,474.954q0-5.98-5.262-5.981-5.394,0-5.4,5.981,0,6.076,5.4,6.077Q120.395,481.031,120.4,474.954Z" transform="translate(-90.215 -459.141)" fill="none"/>
  <path id="Path_210" data-name="Path 210" d="M859.861,439.96v12.751l11.581,6.687,11.581-6.687V439.96l-11.581-6.685Zm10.773,16.214a.155.155,0,0,1-.233.135l-8.153-4.707a.465.465,0,0,1-.233-.4v-9.1a.155.155,0,0,1,.233-.135l8.153,4.706a.467.467,0,0,1,.233.4Zm8.925-3.951-7.075,4.085a.155.155,0,0,1-.233-.135v-8.169a.155.155,0,0,1,.233-.135l7.075,4.085A.155.155,0,0,1,879.558,452.224Zm0-11.776a.155.155,0,0,1,0,.268l-7.805,4.507a.624.624,0,0,1-.622,0l-7.8-4.507a.155.155,0,0,1,0-.268l7.8-4.506a.617.617,0,0,1,.622,0Z" transform="translate(-692.576 -430.475)" fill="none"/>
  <path id="Path_211" data-name="Path 211" d="M20,472.414a14.358,14.358,0,0,0,5.115-.854v-2.921a12.141,12.141,0,0,1-4.871.972q-6.273,0-6.274-6.271,0-5.783,6.274-5.784a12.147,12.147,0,0,1,4.871.974v-2.923A14.358,14.358,0,0,0,20,454.754q-9.378,0-9.377,8.586Q10.627,472.414,20,472.414Z" transform="translate(-10.627 -447.723)" fill="#4dc4c2"/>
  <path id="Path_212" data-name="Path 212" d="M110.093,463.608q0-8.853-8.611-8.854-8.744,0-8.744,8.854.389,8.805,8.744,8.806Q110.092,472.414,110.093,463.608Zm-14.007-.072q0-5.98,5.4-5.981,5.262,0,5.262,5.981,0,6.076-5.262,6.077Q96.088,469.612,96.087,463.536Z" transform="translate(-76.563 -447.723)" fill="#4dc4c2"/>
  <path id="Path_213" data-name="Path 213" d="M211.952,472.79V455.373h-3.227l-5.785,13.214-5.907-13.214h-3.349V472.79h2.984v-12.13l4.823,12.13h2.753l4.725-12.13v12.13Z" transform="translate(-157.625 -448.22)" fill="#4dc4c2"/>
  <path id="Path_214" data-name="Path 214" d="M323.242,472.79V455.373h-3.227l-5.786,13.214-5.906-13.214h-3.349V472.79h2.984v-12.13l4.823,12.13h2.752l4.725-12.13v12.13Z" transform="translate(-246.992 -448.22)" fill="#4dc4c2"/>
  <path id="Path_215" data-name="Path 215" d="M413.692,468.71,408.3,455.373h-3.836l7.306,17.417h3.472l7.635-17.417h-3.8Z" transform="translate(-326.882 -448.22)" fill="#4dc4c2"/>
  <path id="Path_216" data-name="Path 216" d="M486.942,468.039H492.4l2.193,4.75h3.468l-7.55-17.417h-3.471l-7.393,17.417h3.313L488.7,458.7l2.849,6.54h-3.5Z" transform="translate(-387.259 -448.22)" fill="#4dc4c2"/>
  <path id="Path_217" data-name="Path 217" d="M575.405,455.373v10.572q0,6.968,7.49,6.966t7.491-6.966V455.373h-3.229v10.572q0,4.167-4.263,4.165t-4.261-4.165V455.373Z" transform="translate(-464.153 -448.22)" fill="#4dc4c2"/>
  <path id="Path_218" data-name="Path 218" d="M668.117,455.373V472.79h11.364v-2.8h-8.136V455.373Z" transform="translate(-538.602 -448.22)" fill="#4dc4c2"/>
  <path id="Path_219" data-name="Path 219" d="M725.12,472.79V458.174h4.993v-2.8H716.9v2.8h4.994V472.79Z" transform="translate(-577.775 -448.22)" fill="#4dc4c2"/>
  <path id="Path_220" data-name="Path 220" d="M797.6,459.058a.407.407,0,0,0,.125-.33.436.436,0,0,0-.144-.358.681.681,0,0,0-.441-.119H796.5v1.667h.261V459.2h.273l.456.717h.278l-.477-.737A.564.564,0,0,0,797.6,459.058Zm-.573-.067h-.27v-.531h.342a.956.956,0,0,1,.133.009.365.365,0,0,1,.117.037.219.219,0,0,1,.083.075.237.237,0,0,1,.034.133.277.277,0,0,1-.038.155.214.214,0,0,1-.1.082.434.434,0,0,1-.139.033C797.144,458.988,797.089,458.99,797.031,458.99Z" transform="translate(-641.696 -450.53)" fill="#4dc4c2"/>
  <path id="Path_221" data-name="Path 221" d="M793.525,455.251a1.425,1.425,0,1,0,1.425,1.424A1.425,1.425,0,0,0,793.525,455.251Zm0,2.643a1.217,1.217,0,1,1,1.216-1.217A1.217,1.217,0,0,1,793.525,457.894Z" transform="translate(-638.163 -448.122)" fill="#4dc4c2"/>
  <path id="Path_222" data-name="Path 222" d="M847.551,427.146V442.7l14.006,8.087,14.006-8.087v-15.55l-14.006-8.086ZM873.138,441.3l-11.581,6.687L849.976,441.3V428.546l11.581-6.685,11.581,6.685Z" transform="translate(-682.691 -419.06)" fill="#4dc4c2"/>
  <path id="Path_223" data-name="Path 223" d="M879.181,481.992l-8.153-4.706a.155.155,0,0,0-.233.135v9.1a.465.465,0,0,0,.233.4l8.153,4.707a.155.155,0,0,0,.233-.135v-9.1A.467.467,0,0,0,879.181,481.992Z" transform="translate(-701.356 -465.799)" fill="#4dc4c2"/>
  <path id="Path_224" data-name="Path 224" d="M884.939,446.471l-7.8,4.506a.155.155,0,0,0,0,.268l7.8,4.507a.624.624,0,0,0,.622,0l7.805-4.507a.155.155,0,0,0,0-.268l-7.805-4.506A.618.618,0,0,0,884.939,446.471Z" transform="translate(-706.384 -441.004)" fill="#4dc4c2"/>
  <path id="Path_225" data-name="Path 225" d="M922.99,507.282a.155.155,0,0,0-.233.135v8.169a.155.155,0,0,0,.233.135l7.075-4.085a.155.155,0,0,0,0-.268Z" transform="translate(-743.083 -489.886)" fill="#4dc4c2"/>
</svg>
