<svg id="Component_36_1" data-name="Component 36 – 1" xmlns="http://www.w3.org/2000/svg" width="60" height="60" viewBox="0 0 60 60">
  <g id="Group_226" data-name="Group 226" transform="translate(-2 -2)">
    <circle id="Ellipse_185" data-name="Ellipse 185" cx="2" cy="2" r="2" transform="translate(16 37)" fill="#e89d43"/>
    <circle id="Ellipse_186" data-name="Ellipse 186" cx="2" cy="2" r="2" transform="translate(28 36)" fill="#e89d43"/>
    <circle id="Ellipse_187" data-name="Ellipse 187" cx="2" cy="2" r="2" transform="translate(37 39)" fill="#e89d43"/>
    <circle id="Ellipse_188" data-name="Ellipse 188" cx="2" cy="2" r="2" transform="translate(35 56)" fill="#e89d43"/>
    <circle id="Ellipse_189" data-name="Ellipse 189" cx="2" cy="2" r="2" transform="translate(56 36)" fill="#e89d43"/>
    <circle id="Ellipse_190" data-name="Ellipse 190" cx="2" cy="2" r="2" transform="translate(52 46)" fill="#e89d43"/>
    <circle id="Ellipse_191" data-name="Ellipse 191" cx="2" cy="2" r="2" transform="translate(43 54)" fill="#e89d43"/>
    <circle id="Ellipse_192" data-name="Ellipse 192" cx="2" cy="2" r="2" transform="translate(26 57)" fill="#e89d43"/>
    <circle id="Ellipse_193" data-name="Ellipse 193" cx="2" cy="2" r="2" transform="translate(6 43)" fill="#e89d43"/>
    <circle id="Ellipse_194" data-name="Ellipse 194" cx="2" cy="2" r="2" transform="translate(12 50)" fill="#e89d43"/>
    <circle id="Ellipse_195" data-name="Ellipse 195" cx="2" cy="2" r="2" transform="translate(20 50)" fill="#e89d43"/>
  </g>
  <path id="Path_577" data-name="Path 577" d="M3,32a29,29,0,0,1,58,0Z" transform="translate(-2 -2)" fill="#4ac3ed"/>
  <path id="Path_578" data-name="Path 578" d="M16.816,53h2.369a3,3,0,1,0,0-2H16.816a3,3,0,1,0,0,2ZM22,51a1,1,0,1,1-1,1A1,1,0,0,1,22,51Zm-9,1a1,1,0,1,1,1,1A1,1,0,0,1,13,52Z" transform="translate(-2 -2)" fill="#0d1030"/>
  <path id="Path_579" data-name="Path 579" d="M51.184,49a3,3,0,1,0,0-2H45a1,1,0,0,0-1,1v5.184a3,3,0,1,0,2,0V49ZM54,47a1,1,0,1,1-1,1A1,1,0,0,1,54,47ZM45,57a1,1,0,1,1,1-1A1,1,0,0,1,45,57Z" transform="translate(-2 -2)" fill="#0d1030"/>
  <path id="Path_580" data-name="Path 580" d="M32,2A30.034,30.034,0,0,0,2,32a1,1,0,0,0,1,1H17v3.184A3,3,0,0,0,15.184,38h-4.77L7.707,35.293A1,1,0,0,0,7,35H3v2H6.586l2.707,2.707A1,1,0,0,0,10,40h5.184A3,3,0,0,0,17,41.816V44H10.816a3,3,0,1,0,0,2H18a1,1,0,0,0,1-1V41.816a2.982,2.982,0,0,0,0-5.632V33h4V44a1,1,0,0,0,.293.707L27,48.414v7.77a3,3,0,1,0,2,0v-7.77l1.707-1.707A1,1,0,0,0,31,46V40.816a2.982,2.982,0,0,0,0-5.632V33h9.586l-2.293,2.293A1,1,0,0,0,38,36v2.184a2.982,2.982,0,0,0,0,5.632v2.77l-1.707,1.707A1,1,0,0,0,36,49v6.184a3,3,0,1,0,2,0v-5.77l1.707-1.707A1,1,0,0,0,40,47V43.816A3,3,0,0,0,41.816,42H47a1,1,0,0,0,.707-.293L50.414,39h4.77A2.993,2.993,0,1,0,59,35.184V33h2a1,1,0,0,0,1-1A30.034,30.034,0,0,0,32,2ZM8,46a1,1,0,1,1,1-1A1,1,0,0,1,8,46Zm10-6a1,1,0,1,1,1-1A1,1,0,0,1,18,40ZM37,59a1,1,0,1,1,1-1A1,1,0,0,1,37,59ZM56.247,18.012a46.417,46.417,0,0,1-5.109,1.663,33.558,33.558,0,0,0-3.364-7.447q1.635-.416,3.06-.921A28.2,28.2,0,0,1,56.247,18.012ZM40.993,31c-.025-2.491-.141-5-.347-7.437a73.5,73.5,0,0,0,9.117-1.486A39.558,39.558,0,0,1,50.982,31Zm-4.3-19.152c-1.534.1-3.1.152-4.693.152s-3.159-.057-4.693-.152C28.706,6.8,30.5,4,32,4S35.294,6.8,36.693,11.848Zm-.874-7.279a17.691,17.691,0,0,1,8.66,6.344c-1.8.339-3.735.6-5.75.778A23.9,23.9,0,0,0,35.819,4.569Zm1.373,9.254a67.127,67.127,0,0,1,1.291,7.926C36.359,21.912,34.19,22,32,22s-4.359-.088-6.482-.251a67.127,67.127,0,0,1,1.291-7.926C28.5,13.937,30.239,14,32,14s3.5-.063,5.192-.177ZM25.271,11.69c-2.015-.183-3.951-.439-5.75-.778a17.68,17.68,0,0,1,8.66-6.344A23.923,23.923,0,0,0,25.271,11.69ZM24.8,13.654a72.836,72.836,0,0,0-1.253,7.92,71.3,71.3,0,0,1-8.754-1.419,31.079,31.079,0,0,1,3.47-7.463,60.979,60.979,0,0,0,6.537.962Zm-1.444,9.909C23.147,26,23.031,28.509,23.006,31h-9.99a39.566,39.566,0,0,1,1.219-8.923A73.363,73.363,0,0,0,23.353,23.563Zm1.979.176c2.186.17,4.417.261,6.668.261s4.482-.091,6.668-.261c.187,2.257.3,4.681.324,7.261H25.007C25.031,28.421,25.145,26,25.332,23.739Zm15.125-2.165a72.837,72.837,0,0,0-1.253-7.92,61.277,61.277,0,0,0,6.537-.961,31.115,31.115,0,0,1,3.47,7.463,71.491,71.491,0,0,1-8.754,1.418ZM49.039,9.805c-.771.238-1.588.457-2.442.659a23.946,23.946,0,0,0-4.073-4.407,27.918,27.918,0,0,1,6.515,3.748ZM17.4,10.463c-.854-.2-1.67-.421-2.442-.659a27.974,27.974,0,0,1,6.515-3.748A23.979,23.979,0,0,0,17.4,10.463Zm-4.236.845q1.427.5,3.06.921a33.558,33.558,0,0,0-3.364,7.447,46.487,46.487,0,0,1-5.109-1.663,28.16,28.16,0,0,1,5.413-6.7ZM6.814,19.789A47.889,47.889,0,0,0,12.3,21.6,41.27,41.27,0,0,0,11.017,31h-7A27.815,27.815,0,0,1,6.814,19.789ZM28,60a1,1,0,1,1,1-1A1,1,0,0,1,28,60Zm2-21a1,1,0,1,1,1-1A1,1,0,0,1,30,39Zm-1-3.816a2.982,2.982,0,0,0,0,5.632v4.77l-1,1-3-3V33h4ZM39,42a1,1,0,1,1,1-1A1,1,0,0,1,39,42Zm19-3a1,1,0,1,1,1-1A1,1,0,0,1,58,39Zm-1-3.816A3,3,0,0,0,55.184,37H50a1,1,0,0,0-.707.293L46.586,40h-4.77A3,3,0,0,0,40,38.184v-1.77L43.414,33H57ZM52.982,31A41.271,41.271,0,0,0,51.7,21.594a47.694,47.694,0,0,0,5.49-1.806A27.79,27.79,0,0,1,59.982,31Z" transform="translate(-2 -2)"/>
</svg>
