<svg id="map-pin-line" xmlns="http://www.w3.org/2000/svg" width="28" height="28" viewBox="0 0 28 28">
  <path id="Path_529" data-name="Path 529" d="M0,0H28V28H0Z" fill="none"/>
  <path id="Path_530" data-name="Path 530" d="M14,24.379l6.05-5.861a8.107,8.107,0,0,0,0-11.722,8.752,8.752,0,0,0-12.1,0,8.107,8.107,0,0,0,0,11.722Zm0,3.349L6.222,20.192a10.423,10.423,0,0,1,0-15.071,11.252,11.252,0,0,1,15.556,0,10.423,10.423,0,0,1,0,15.071Zm0-12.7a2.369,2.369,0,1,0-2.444-2.368A2.407,2.407,0,0,0,14,15.025Zm0,2.368a4.814,4.814,0,0,1-4.889-4.736A4.814,4.814,0,0,1,14,7.92a4.814,4.814,0,0,1,4.889,4.736A4.814,4.814,0,0,1,14,17.393Z" transform="translate(0 0)"/>
</svg>
