<svg id="vmware-1" xmlns="http://www.w3.org/2000/svg" width="155.01" height="23.642" viewBox="0 0 155.01 23.642">
  <path id="Path_231" data-name="Path 231" d="M66.609,21.854,59.818,2.946a2.968,2.968,0,0,1-.206-.915A1.641,1.641,0,0,1,61.3.431,1.755,1.755,0,0,1,63,1.8L68.62,18.081l5.67-16.324A1.687,1.687,0,0,1,75.937.431h.183a1.8,1.8,0,0,1,1.738,1.326l5.624,16.3L89.2,1.688a1.651,1.651,0,0,1,1.6-1.3A1.593,1.593,0,0,1,92.444,1.94a4.085,4.085,0,0,1-.206.915L85.4,21.785a1.972,1.972,0,0,1-1.829,1.509h-.137a1.894,1.894,0,0,1-1.829-1.509L76.028,5.735,70.4,21.785A1.871,1.871,0,0,1,68.6,23.294h-.091a1.848,1.848,0,0,1-1.9-1.44m49.476-19.8A1.679,1.679,0,0,1,117.731.362a1.66,1.66,0,0,1,1.692,1.692V5.9a9.1,9.1,0,0,1,7.7-5.487A1.6,1.6,0,0,1,128.774,2.1a1.669,1.669,0,0,1-1.486,1.692c-4.321.526-7.888,3.772-7.888,10.22V21.6a1.669,1.669,0,1,1-3.338,0ZM139.474,23.5c-6.036,0-10.951-4.664-10.951-11.523v-.091c0-6.379,4.458-11.523,10.517-11.523,6.493,0,10.2,5.35,10.2,11.226a1.551,1.551,0,0,1-1.532,1.555H131.837c.457,4.8,3.818,7.5,7.728,7.5a8.928,8.928,0,0,0,6.333-2.584,1.459,1.459,0,0,1,.937-.389,1.43,1.43,0,0,1,1.44,1.418,1.407,1.407,0,0,1-.5,1.075,11.3,11.3,0,0,1-8.3,3.338m6.493-12.826c-.343-4.024-2.629-7.545-7-7.545-3.818,0-6.7,3.2-7.133,7.545Zm-53.546,5.9v-.091c0-4.71,3.887-7.2,9.534-7.2a23.535,23.535,0,0,1,6.882.96V9.462c0-4.024-2.469-6.082-6.653-6.082a11.312,11.312,0,0,0-5.19,1.029,1.579,1.579,0,0,1-.594.137,1.465,1.465,0,0,1-1.463-1.418,1.389,1.389,0,0,1,.915-1.395,14.746,14.746,0,0,1,6.7-1.28c3.155,0,5.579.823,7.2,2.469a8.829,8.829,0,0,1,2.286,6.516V21.762a1.587,1.587,0,0,1-1.6,1.646,1.52,1.52,0,0,1-1.578-1.555V19.727a9.788,9.788,0,0,1-8.071,3.841c-4.161-.046-8.368-2.424-8.368-7m16.462-1.738V12.686a23.072,23.072,0,0,0-6.562-.96c-4.184,0-6.516,1.806-6.516,4.618v.091c0,2.812,2.584,4.458,5.624,4.458,4.093,0,7.453-2.515,7.453-6.059M6.112,1.871A3.149,3.149,0,0,0,1.883.294,3.1,3.1,0,0,0,.328,4.523l7.088,15.41c1.12,2.424,2.286,3.681,4.5,3.681,2.355,0,3.384-1.372,4.5-3.681,0,0,6.173-13.466,6.242-13.6a.9.9,0,0,1,.892-.572,1,1,0,0,1,.983,1.006V19.933c0,2.035,1.12,3.7,3.292,3.7s3.338-1.669,3.338-3.7V9.165a3.313,3.313,0,0,1,3.521-3.429,3.228,3.228,0,0,1,3.384,3.429V19.933c0,2.035,1.12,3.7,3.292,3.7s3.338-1.669,3.338-3.7V9.165a3.313,3.313,0,0,1,3.521-3.429A3.228,3.228,0,0,1,51.61,9.165V19.933c0,2.035,1.12,3.7,3.292,3.7s3.338-1.669,3.338-3.7V7.678A7.676,7.676,0,0,0,50.261.019a10.292,10.292,0,0,0-7.088,3.018C41.733,1.14,39.721,0,36.338,0c-3.567,0-6.7,3.018-6.7,3.018A8,8,0,0,0,23.671,0c-3.155.023-5.67,1.418-7.2,4.916L11.943,15.589ZM149.488,3.129a2.767,2.767,0,0,1,5.533-.046v.023a2.766,2.766,0,1,1-5.533.023m5.007-.023A2.221,2.221,0,0,0,152.254.842a2.249,2.249,0,0,0-2.241,2.263v.023a2.235,2.235,0,0,0,2.241,2.263,2.269,2.269,0,0,0,2.241-2.286" transform="translate(-0.01 0.005)" fill="#67b0ae"/>
  <path id="Path_232" data-name="Path 232" d="M661.223,7.9a.3.3,0,0,1,.3-.3h.914a1,1,0,0,1,.777.274.794.794,0,0,1,.229.617.839.839,0,0,1-.526.823l.412.5a.406.406,0,0,1,.091.229.278.278,0,0,1-.274.274.357.357,0,0,1-.3-.16l-.572-.732h-.48V10a.3.3,0,0,1-.594,0ZM662.412,8.9c.3,0,.434-.16.434-.389,0-.251-.16-.389-.457-.389h-.594V8.9Z" transform="translate(-510.031 -5.861)" fill="#67b0ae"/>
</svg>
