<svg xmlns="http://www.w3.org/2000/svg" width="260" height="225" viewBox="0 0 260 225">
  <g id="Group_139" data-name="Group 139" transform="translate(0 -0.169)" opacity="0.51">
    <g id="Ellipse_29" data-name="Ellipse 29" transform="translate(0 0.169)" fill="#0d1943" stroke="#707070" stroke-width="1" opacity="0.05">
      <circle cx="7.5" cy="7.5" r="7.5" stroke="none"/>
      <circle cx="7.5" cy="7.5" r="7" fill="none"/>
    </g>
    <g id="Ellipse_29-2" data-name="Ellipse 29" transform="translate(35 0.169)" fill="#0d1943" stroke="#707070" stroke-width="1" opacity="0.05">
      <circle cx="7.5" cy="7.5" r="7.5" stroke="none"/>
      <circle cx="7.5" cy="7.5" r="7" fill="none"/>
    </g>
    <g id="Ellipse_29-3" data-name="Ellipse 29" transform="translate(70 0.169)" fill="#0d1943" stroke="#707070" stroke-width="1" opacity="0.05">
      <circle cx="7.5" cy="7.5" r="7.5" stroke="none"/>
      <circle cx="7.5" cy="7.5" r="7" fill="none"/>
    </g>
    <g id="Ellipse_29-4" data-name="Ellipse 29" transform="translate(105 0.169)" fill="#0d1943" stroke="#707070" stroke-width="1" opacity="0.05">
      <circle cx="7.5" cy="7.5" r="7.5" stroke="none"/>
      <circle cx="7.5" cy="7.5" r="7" fill="none"/>
    </g>
    <g id="Ellipse_29-5" data-name="Ellipse 29" transform="translate(140 0.169)" fill="#0d1943" stroke="#707070" stroke-width="1" opacity="0.05">
      <circle cx="7.5" cy="7.5" r="7.5" stroke="none"/>
      <circle cx="7.5" cy="7.5" r="7" fill="none"/>
    </g>
    <g id="Ellipse_29-6" data-name="Ellipse 29" transform="translate(175 0.169)" fill="#0d1943" stroke="#707070" stroke-width="1" opacity="0.05">
      <circle cx="7.5" cy="7.5" r="7.5" stroke="none"/>
      <circle cx="7.5" cy="7.5" r="7" fill="none"/>
    </g>
    <g id="Ellipse_29-7" data-name="Ellipse 29" transform="translate(210 0.169)" fill="#0d1943" stroke="#707070" stroke-width="1" opacity="0.05">
      <circle cx="7.5" cy="7.5" r="7.5" stroke="none"/>
      <circle cx="7.5" cy="7.5" r="7" fill="none"/>
    </g>
    <g id="Ellipse_29-8" data-name="Ellipse 29" transform="translate(245 0.169)" fill="#0d1943" stroke="#707070" stroke-width="1" opacity="0.05">
      <circle cx="7.5" cy="7.5" r="7.5" stroke="none"/>
      <circle cx="7.5" cy="7.5" r="7" fill="none"/>
    </g>
    <g id="Ellipse_29-9" data-name="Ellipse 29" transform="translate(0 35.169)" fill="#0d1943" stroke="#707070" stroke-width="1" opacity="0.05">
      <circle cx="7.5" cy="7.5" r="7.5" stroke="none"/>
      <circle cx="7.5" cy="7.5" r="7" fill="none"/>
    </g>
    <g id="Ellipse_29-10" data-name="Ellipse 29" transform="translate(35 35.169)" fill="#0d1943" stroke="#707070" stroke-width="1" opacity="0.05">
      <circle cx="7.5" cy="7.5" r="7.5" stroke="none"/>
      <circle cx="7.5" cy="7.5" r="7" fill="none"/>
    </g>
    <g id="Ellipse_29-11" data-name="Ellipse 29" transform="translate(70 35.169)" fill="#0d1943" stroke="#707070" stroke-width="1" opacity="0.05">
      <circle cx="7.5" cy="7.5" r="7.5" stroke="none"/>
      <circle cx="7.5" cy="7.5" r="7" fill="none"/>
    </g>
    <g id="Ellipse_29-12" data-name="Ellipse 29" transform="translate(105 35.169)" fill="#0d1943" stroke="#707070" stroke-width="1" opacity="0.05">
      <circle cx="7.5" cy="7.5" r="7.5" stroke="none"/>
      <circle cx="7.5" cy="7.5" r="7" fill="none"/>
    </g>
    <g id="Ellipse_29-13" data-name="Ellipse 29" transform="translate(140 35.169)" fill="#0d1943" stroke="#707070" stroke-width="1" opacity="0.05">
      <circle cx="7.5" cy="7.5" r="7.5" stroke="none"/>
      <circle cx="7.5" cy="7.5" r="7" fill="none"/>
    </g>
    <g id="Ellipse_29-14" data-name="Ellipse 29" transform="translate(175 35.169)" fill="#0d1943" stroke="#707070" stroke-width="1" opacity="0.05">
      <circle cx="7.5" cy="7.5" r="7.5" stroke="none"/>
      <circle cx="7.5" cy="7.5" r="7" fill="none"/>
    </g>
    <g id="Ellipse_29-15" data-name="Ellipse 29" transform="translate(210 35.169)" fill="#0d1943" stroke="#707070" stroke-width="1" opacity="0.05">
      <circle cx="7.5" cy="7.5" r="7.5" stroke="none"/>
      <circle cx="7.5" cy="7.5" r="7" fill="none"/>
    </g>
    <g id="Ellipse_29-16" data-name="Ellipse 29" transform="translate(245 35.169)" fill="#0d1943" stroke="#707070" stroke-width="1" opacity="0.05">
      <circle cx="7.5" cy="7.5" r="7.5" stroke="none"/>
      <circle cx="7.5" cy="7.5" r="7" fill="none"/>
    </g>
    <g id="Ellipse_29-17" data-name="Ellipse 29" transform="translate(0 70.169)" fill="#0d1943" stroke="#707070" stroke-width="1" opacity="0.05">
      <circle cx="7.5" cy="7.5" r="7.5" stroke="none"/>
      <circle cx="7.5" cy="7.5" r="7" fill="none"/>
    </g>
    <g id="Ellipse_29-18" data-name="Ellipse 29" transform="translate(35 70.169)" fill="#0d1943" stroke="#707070" stroke-width="1" opacity="0.05">
      <circle cx="7.5" cy="7.5" r="7.5" stroke="none"/>
      <circle cx="7.5" cy="7.5" r="7" fill="none"/>
    </g>
    <g id="Ellipse_29-19" data-name="Ellipse 29" transform="translate(70 70.169)" fill="#0d1943" stroke="#707070" stroke-width="1" opacity="0.05">
      <circle cx="7.5" cy="7.5" r="7.5" stroke="none"/>
      <circle cx="7.5" cy="7.5" r="7" fill="none"/>
    </g>
    <g id="Ellipse_29-20" data-name="Ellipse 29" transform="translate(105 70.169)" fill="#0d1943" stroke="#707070" stroke-width="1" opacity="0.05">
      <circle cx="7.5" cy="7.5" r="7.5" stroke="none"/>
      <circle cx="7.5" cy="7.5" r="7" fill="none"/>
    </g>
    <g id="Ellipse_29-21" data-name="Ellipse 29" transform="translate(140 70.169)" fill="#0d1943" stroke="#707070" stroke-width="1" opacity="0.05">
      <circle cx="7.5" cy="7.5" r="7.5" stroke="none"/>
      <circle cx="7.5" cy="7.5" r="7" fill="none"/>
    </g>
    <g id="Ellipse_29-22" data-name="Ellipse 29" transform="translate(175 70.169)" fill="#0d1943" stroke="#707070" stroke-width="1" opacity="0.05">
      <circle cx="7.5" cy="7.5" r="7.5" stroke="none"/>
      <circle cx="7.5" cy="7.5" r="7" fill="none"/>
    </g>
    <g id="Ellipse_29-23" data-name="Ellipse 29" transform="translate(210 70.169)" fill="#0d1943" stroke="#707070" stroke-width="1" opacity="0.05">
      <circle cx="7.5" cy="7.5" r="7.5" stroke="none"/>
      <circle cx="7.5" cy="7.5" r="7" fill="none"/>
    </g>
    <g id="Ellipse_29-24" data-name="Ellipse 29" transform="translate(245 70.169)" fill="#0d1943" stroke="#707070" stroke-width="1" opacity="0.05">
      <circle cx="7.5" cy="7.5" r="7.5" stroke="none"/>
      <circle cx="7.5" cy="7.5" r="7" fill="none"/>
    </g>
    <g id="Ellipse_29-25" data-name="Ellipse 29" transform="translate(0 105.169)" fill="#0d1943" stroke="#707070" stroke-width="1" opacity="0.05">
      <circle cx="7.5" cy="7.5" r="7.5" stroke="none"/>
      <circle cx="7.5" cy="7.5" r="7" fill="none"/>
    </g>
    <g id="Ellipse_29-26" data-name="Ellipse 29" transform="translate(35 105.169)" fill="#0d1943" stroke="#707070" stroke-width="1" opacity="0.05">
      <circle cx="7.5" cy="7.5" r="7.5" stroke="none"/>
      <circle cx="7.5" cy="7.5" r="7" fill="none"/>
    </g>
    <g id="Ellipse_29-27" data-name="Ellipse 29" transform="translate(70 105.169)" fill="#0d1943" stroke="#707070" stroke-width="1" opacity="0.05">
      <circle cx="7.5" cy="7.5" r="7.5" stroke="none"/>
      <circle cx="7.5" cy="7.5" r="7" fill="none"/>
    </g>
    <g id="Ellipse_29-28" data-name="Ellipse 29" transform="translate(105 105.169)" fill="#0d1943" stroke="#707070" stroke-width="1" opacity="0.05">
      <circle cx="7.5" cy="7.5" r="7.5" stroke="none"/>
      <circle cx="7.5" cy="7.5" r="7" fill="none"/>
    </g>
    <g id="Ellipse_29-29" data-name="Ellipse 29" transform="translate(140 105.169)" fill="#0d1943" stroke="#707070" stroke-width="1" opacity="0.05">
      <circle cx="7.5" cy="7.5" r="7.5" stroke="none"/>
      <circle cx="7.5" cy="7.5" r="7" fill="none"/>
    </g>
    <g id="Ellipse_29-30" data-name="Ellipse 29" transform="translate(175 105.169)" fill="#0d1943" stroke="#707070" stroke-width="1" opacity="0.05">
      <circle cx="7.5" cy="7.5" r="7.5" stroke="none"/>
      <circle cx="7.5" cy="7.5" r="7" fill="none"/>
    </g>
    <g id="Ellipse_29-31" data-name="Ellipse 29" transform="translate(210 105.169)" fill="#0d1943" stroke="#707070" stroke-width="1" opacity="0.05">
      <circle cx="7.5" cy="7.5" r="7.5" stroke="none"/>
      <circle cx="7.5" cy="7.5" r="7" fill="none"/>
    </g>
    <g id="Ellipse_29-32" data-name="Ellipse 29" transform="translate(245 105.169)" fill="#0d1943" stroke="#707070" stroke-width="1" opacity="0.05">
      <circle cx="7.5" cy="7.5" r="7.5" stroke="none"/>
      <circle cx="7.5" cy="7.5" r="7" fill="none"/>
    </g>
    <g id="Ellipse_29-33" data-name="Ellipse 29" transform="translate(0 140.169)" fill="#0d1943" stroke="#707070" stroke-width="1" opacity="0.05">
      <circle cx="7.5" cy="7.5" r="7.5" stroke="none"/>
      <circle cx="7.5" cy="7.5" r="7" fill="none"/>
    </g>
    <g id="Ellipse_29-34" data-name="Ellipse 29" transform="translate(35 140.169)" fill="#0d1943" stroke="#707070" stroke-width="1" opacity="0.05">
      <circle cx="7.5" cy="7.5" r="7.5" stroke="none"/>
      <circle cx="7.5" cy="7.5" r="7" fill="none"/>
    </g>
    <g id="Ellipse_29-35" data-name="Ellipse 29" transform="translate(70 140.169)" fill="#0d1943" stroke="#707070" stroke-width="1" opacity="0.05">
      <circle cx="7.5" cy="7.5" r="7.5" stroke="none"/>
      <circle cx="7.5" cy="7.5" r="7" fill="none"/>
    </g>
    <g id="Ellipse_29-36" data-name="Ellipse 29" transform="translate(105 140.169)" fill="#0d1943" stroke="#707070" stroke-width="1" opacity="0.05">
      <circle cx="7.5" cy="7.5" r="7.5" stroke="none"/>
      <circle cx="7.5" cy="7.5" r="7" fill="none"/>
    </g>
    <g id="Ellipse_29-37" data-name="Ellipse 29" transform="translate(140 140.169)" fill="#0d1943" stroke="#707070" stroke-width="1" opacity="0.05">
      <circle cx="7.5" cy="7.5" r="7.5" stroke="none"/>
      <circle cx="7.5" cy="7.5" r="7" fill="none"/>
    </g>
    <g id="Ellipse_29-38" data-name="Ellipse 29" transform="translate(175 140.169)" fill="#0d1943" stroke="#707070" stroke-width="1" opacity="0.05">
      <circle cx="7.5" cy="7.5" r="7.5" stroke="none"/>
      <circle cx="7.5" cy="7.5" r="7" fill="none"/>
    </g>
    <g id="Ellipse_29-39" data-name="Ellipse 29" transform="translate(210 140.169)" fill="#0d1943" stroke="#707070" stroke-width="1" opacity="0.05">
      <circle cx="7.5" cy="7.5" r="7.5" stroke="none"/>
      <circle cx="7.5" cy="7.5" r="7" fill="none"/>
    </g>
    <g id="Ellipse_29-40" data-name="Ellipse 29" transform="translate(245 140.169)" fill="#0d1943" stroke="#707070" stroke-width="1" opacity="0.05">
      <circle cx="7.5" cy="7.5" r="7.5" stroke="none"/>
      <circle cx="7.5" cy="7.5" r="7" fill="none"/>
    </g>
    <g id="Ellipse_29-41" data-name="Ellipse 29" transform="translate(0 175.169)" fill="#0d1943" stroke="#707070" stroke-width="1" opacity="0.05">
      <circle cx="7.5" cy="7.5" r="7.5" stroke="none"/>
      <circle cx="7.5" cy="7.5" r="7" fill="none"/>
    </g>
    <g id="Ellipse_29-42" data-name="Ellipse 29" transform="translate(35 175.169)" fill="#0d1943" stroke="#707070" stroke-width="1" opacity="0.05">
      <circle cx="7.5" cy="7.5" r="7.5" stroke="none"/>
      <circle cx="7.5" cy="7.5" r="7" fill="none"/>
    </g>
    <g id="Ellipse_29-43" data-name="Ellipse 29" transform="translate(70 175.169)" fill="#0d1943" stroke="#707070" stroke-width="1" opacity="0.05">
      <circle cx="7.5" cy="7.5" r="7.5" stroke="none"/>
      <circle cx="7.5" cy="7.5" r="7" fill="none"/>
    </g>
    <g id="Ellipse_29-44" data-name="Ellipse 29" transform="translate(105 175.169)" fill="#0d1943" stroke="#707070" stroke-width="1" opacity="0.05">
      <circle cx="7.5" cy="7.5" r="7.5" stroke="none"/>
      <circle cx="7.5" cy="7.5" r="7" fill="none"/>
    </g>
    <g id="Ellipse_29-45" data-name="Ellipse 29" transform="translate(140 175.169)" fill="#0d1943" stroke="#707070" stroke-width="1" opacity="0.05">
      <circle cx="7.5" cy="7.5" r="7.5" stroke="none"/>
      <circle cx="7.5" cy="7.5" r="7" fill="none"/>
    </g>
    <g id="Ellipse_29-46" data-name="Ellipse 29" transform="translate(175 175.169)" fill="#0d1943" stroke="#707070" stroke-width="1" opacity="0.05">
      <circle cx="7.5" cy="7.5" r="7.5" stroke="none"/>
      <circle cx="7.5" cy="7.5" r="7" fill="none"/>
    </g>
    <g id="Ellipse_29-47" data-name="Ellipse 29" transform="translate(210 175.169)" fill="#0d1943" stroke="#707070" stroke-width="1" opacity="0.05">
      <circle cx="7.5" cy="7.5" r="7.5" stroke="none"/>
      <circle cx="7.5" cy="7.5" r="7" fill="none"/>
    </g>
    <g id="Ellipse_29-48" data-name="Ellipse 29" transform="translate(245 175.169)" fill="#0d1943" stroke="#707070" stroke-width="1" opacity="0.05">
      <circle cx="7.5" cy="7.5" r="7.5" stroke="none"/>
      <circle cx="7.5" cy="7.5" r="7" fill="none"/>
    </g>
    <g id="Ellipse_29-49" data-name="Ellipse 29" transform="translate(0 210.169)" fill="#0d1943" stroke="#707070" stroke-width="1" opacity="0.05">
      <circle cx="7.5" cy="7.5" r="7.5" stroke="none"/>
      <circle cx="7.5" cy="7.5" r="7" fill="none"/>
    </g>
    <g id="Ellipse_29-50" data-name="Ellipse 29" transform="translate(35 210.169)" fill="#0d1943" stroke="#707070" stroke-width="1" opacity="0.05">
      <circle cx="7.5" cy="7.5" r="7.5" stroke="none"/>
      <circle cx="7.5" cy="7.5" r="7" fill="none"/>
    </g>
    <g id="Ellipse_29-51" data-name="Ellipse 29" transform="translate(70 210.169)" fill="#0d1943" stroke="#707070" stroke-width="1" opacity="0.05">
      <circle cx="7.5" cy="7.5" r="7.5" stroke="none"/>
      <circle cx="7.5" cy="7.5" r="7" fill="none"/>
    </g>
    <g id="Ellipse_29-52" data-name="Ellipse 29" transform="translate(105 210.169)" fill="#0d1943" stroke="#707070" stroke-width="1" opacity="0.05">
      <circle cx="7.5" cy="7.5" r="7.5" stroke="none"/>
      <circle cx="7.5" cy="7.5" r="7" fill="none"/>
    </g>
    <g id="Ellipse_29-53" data-name="Ellipse 29" transform="translate(140 210.169)" fill="#0d1943" stroke="#707070" stroke-width="1" opacity="0.05">
      <circle cx="7.5" cy="7.5" r="7.5" stroke="none"/>
      <circle cx="7.5" cy="7.5" r="7" fill="none"/>
    </g>
    <g id="Ellipse_29-54" data-name="Ellipse 29" transform="translate(175 210.169)" fill="#0d1943" stroke="#707070" stroke-width="1" opacity="0.05">
      <circle cx="7.5" cy="7.5" r="7.5" stroke="none"/>
      <circle cx="7.5" cy="7.5" r="7" fill="none"/>
    </g>
    <g id="Ellipse_29-55" data-name="Ellipse 29" transform="translate(210 210.169)" fill="#0d1943" stroke="#707070" stroke-width="1" opacity="0.05">
      <circle cx="7.5" cy="7.5" r="7.5" stroke="none"/>
      <circle cx="7.5" cy="7.5" r="7" fill="none"/>
    </g>
    <g id="Ellipse_29-56" data-name="Ellipse 29" transform="translate(245 210.169)" fill="#0d1943" stroke="#707070" stroke-width="1" opacity="0.05">
      <circle cx="7.5" cy="7.5" r="7.5" stroke="none"/>
      <circle cx="7.5" cy="7.5" r="7" fill="none"/>
    </g>
  </g>
</svg>
