<svg xmlns="http://www.w3.org/2000/svg" width="77.239" height="85.828" viewBox="0 0 77.239 85.828">
  <path id="goal" d="M76.623,11.538l-3.668-3.23,3.668-3.229a1.81,1.81,0,0,0-1.2-3.169H60.249V1.258a1.258,1.258,0,1,0-2.516,0V18.223L47.4,23.833a3.98,3.98,0,0,0-.409-1.321l-1.456-2.842a3.98,3.98,0,0,0-5.35-1.726l-1.126.576a3.974,3.974,0,0,0-1.726,5.35l1.456,2.843a3.951,3.951,0,0,0,1.433,1.556,11.02,11.02,0,0,0-1.517,3.649l-.271.96a1.257,1.257,0,0,0,.868,1.553,1.238,1.238,0,0,0,.342.048,1.259,1.259,0,0,0,1.21-.916l.271-.958c.551-1.944.89-2.985,1.968-3.571l1.932-1.05.238-.122c.079-.041.153-.086.229-.132l13.772-7.479a5.324,5.324,0,0,1-2.539,4.275l-8.956,5.442-.031.018L44.955,31.68a1.258,1.258,0,0,0,1.2,2.207L44.042,40.28l-1.546.634-4.2,1.723L39.5,38.355a1.258,1.258,0,1,0-2.422-.685l-1.914,6.769a1.208,1.208,0,0,0-.045.274l-.5,9.2a4.21,4.21,0,0,1-.1,1.357l-5.563,11.7H24.913a4.3,4.3,0,0,0-4.295,4.294V74.9a4.261,4.261,0,0,0-1.778-.387H8.572a4.3,4.3,0,0,0-4.294,4.294v4.505H1.258a1.258,1.258,0,0,0,0,2.516H75.425a1.258,1.258,0,1,0,0-2.516H72.154V50.889a4.3,4.3,0,0,0-4.294-4.294h-7.61V24.65a7.845,7.845,0,0,0,1.264-6.723A1.258,1.258,0,0,0,60.249,17v-2.3H75.426a1.811,1.811,0,0,0,1.2-3.169ZM39.485,21.61a1.449,1.449,0,0,1,.724-.851l1.126-.576a1.459,1.459,0,0,1,1.964.633l1.456,2.843a1.461,1.461,0,0,1-.485,1.875l-.41.222L43,26.2a1.461,1.461,0,0,1-1.964-.634l-1.456-2.842a1.45,1.45,0,0,1-.09-1.113ZM36.958,67.362a4.27,4.27,0,0,0-1.381-.368l1.381-1.834ZM42.93,57.226a4.74,4.74,0,0,0,.907-2.254c.034-.162.655-3.553.655-3.553s.587.366.649.392a.134.134,0,0,1,.077.11l.684,6.956H41.687Zm7.439-6.943-1.062,8.589H48.43l-.708-7.2a2.65,2.65,0,0,0-1.482-2.127l-1.265-.8.843-4.671s3.55,4.218,3.633,4.325c.735.955.986,1.338.918,1.883ZM36.782,56.371a6.819,6.819,0,0,0,.352-2.335l.457-8.392,5.818-2.384-1.058,5.858c0,.016-.007.032-.009.048l-.875,4.844a4.792,4.792,0,0,1-.526,1.676l-8.5,11.29h-.7ZM6.794,78.807a1.78,1.78,0,0,1,1.778-1.778H18.839a1.781,1.781,0,0,1,1.779,1.778v4.506H6.794Zm16.34,0V71.269a1.781,1.781,0,0,1,1.779-1.778H35.179a1.78,1.78,0,0,1,1.778,1.778V83.312H23.134V78.807Zm46.5-27.917V83.312H55.814V75.77a1.258,1.258,0,0,0-2.516,0v7.542H39.474V63.171a1.78,1.78,0,0,1,1.778-1.778H51.519A1.78,1.78,0,0,1,53.3,63.171v6.306a1.258,1.258,0,0,0,2.516,0V50.889a1.781,1.781,0,0,1,1.779-1.778H67.859a1.781,1.781,0,0,1,1.779,1.778ZM57.592,46.595A4.3,4.3,0,0,0,53.3,50.889v8.375a4.258,4.258,0,0,0-1.458-.374l1.026-8.3a4.858,4.858,0,0,0-1.421-3.727c-.084-.11-4.974-5.916-4.974-5.916l3-9.069,8.262-5.02V46.595Zm2.657-34.4V4.427H73.557L70.691,6.95a1.81,1.81,0,0,0,0,2.717l2.866,2.524H60.249Zm0,0"/>
</svg>
