<svg id="Layer_2" xmlns="http://www.w3.org/2000/svg" width="178.401" height="22.858" viewBox="0 0 178.401 22.858">
  <rect id="Rectangle_95" data-name="Rectangle 95" width="7.123" height="22.286" transform="translate(0 0.543)" fill="#67b0ae"/>
  <g id="Group_104" data-name="Group 104" transform="translate(11.872)">
    <path id="Path_170" data-name="Path 170" d="M206.5,288.8H192.6v22.286h7.5v-6.78h6.923c5.092,0,8.439-3,8.439-8.125-.057-5.235-3.2-7.381-8.954-7.381m-1.688,10.642h-4.749v-6.008h4.749a2.806,2.806,0,0,1,3.061,2.975,2.875,2.875,0,0,1-3.061,3.032" transform="translate(-153.578 -288.256)" fill="#67b0ae"/>
    <path id="Path_171" data-name="Path 171" d="M291.61,306.251v-4.034H304.54v-4.406H291.61v-4.177H304.54V288.8H284.2v22.314h20.34v-4.863Z" transform="translate(-218.973 -288.256)" fill="#67b0ae"/>
    <path id="Path_172" data-name="Path 172" d="M482.666,288.8H475.6l-7.553,16.021-6.98-16.021H453.4l10.27,22.314H471.8Z" transform="translate(-339.768 -288.256)" fill="#67b0ae"/>
    <path id="Path_173" data-name="Path 173" d="M545.285,288.8h8.64l10.413,22.314h-7.982l-1.659-4.091h-9.755l2.4-4.863h5.436l-3.176-7.524-8.125,16.478H534.7Z" transform="translate(-397.81 -288.256)" fill="#67b0ae"/>
    <path id="Path_174" data-name="Path 174" d="M388.064,311.186h7.982l-5.121-8.9c2.146-1.059,3.4-2.861,3.4-6.008,0-5.264-3.147-7.381-8.926-7.381H371.5v22.286H379v-7.467h5.064ZM379,299.17v-5.664h4.749c2.4,0,3.061,1.573,3.061,2.832,0,1.888-1.287,2.832-3.061,2.832Z" transform="translate(-281.298 -288.328)" fill="#67b0ae"/>
    <path id="Path_175" data-name="Path 175" d="M72.621,301.5l-5.55-12.7H56.2v22.314h6.78v-14.39l5.893,12.788Z" transform="translate(-56.2 -288.256)" fill="#67b0ae"/>
    <path id="Path_176" data-name="Path 176" d="M113.271,288.8h0L102.8,311.086l.029.029h6.666l7.438-15.248v15.248h6.78V288.8Z" transform="translate(-89.469 -288.256)" fill="#67b0ae"/>
    <path id="Path_177" data-name="Path 177" d="M619.3,289.189a2.377,2.377,0,0,1,.315-1.144,2.308,2.308,0,0,1,1.974-1.144,2.163,2.163,0,0,1,1.116.286,2.308,2.308,0,0,1,1.144,2,2.215,2.215,0,0,1-.315,1.144,2.308,2.308,0,0,1-1.974,1.144,2.4,2.4,0,0,1-1.173-.315,2.306,2.306,0,0,1-.83-.83,3.171,3.171,0,0,1-.258-1.144m.315,0a1.938,1.938,0,0,0,.973,1.688,1.98,1.98,0,0,0,.973.257,1.9,1.9,0,0,0,.973-.257,2.137,2.137,0,0,0,.715-.715,2.007,2.007,0,0,0,.258-1,1.938,1.938,0,0,0-.973-1.688,2.007,2.007,0,0,0-1-.258,1.938,1.938,0,0,0-1.688.973,2.338,2.338,0,0,0-.229,1m2.889-.572a.7.7,0,0,1-.143.429.853.853,0,0,1-.4.286l.687,1.173h-.458l-.629-1.059h-.343V290.5h-.4v-2.689h.687a1.1,1.1,0,0,1,.744.2.664.664,0,0,1,.257.6m-1.259.486h.286c.4,0,.6-.143.6-.458a.369.369,0,0,0-.143-.315.926.926,0,0,0-.458-.086h-.286Z" transform="translate(-458.207 -286.9)" fill="#67b0ae"/>
  </g>
</svg>
