<svg id="optimization" xmlns="http://www.w3.org/2000/svg" width="70" height="70" viewBox="0 0 70 70">
  <path id="Path_632" data-name="Path 632" d="M21.738,56.962v-5.8l4.278-4.278a26.737,26.737,0,1,0-2.9-2.9l-4.278,4.278h-5.8L0,61.3,8.7,70ZM45.391,14.355h4.1v-4.1h4.1v4.1h4.1V38.965h-4.1v4.1h-4.1v-4.1h-4.1Zm-16.406,8.2h4.1v-4.1h4.1v4.1h4.1V38.965h-4.1v4.1h-4.1v-4.1h-4.1Z"/>
  <path id="Path_633" data-name="Path 633" d="M242,195h4.1v8.2H242Z" transform="translate(-208.914 -168.34)"/>
  <path id="Path_634" data-name="Path 634" d="M362,135h4.1v16.406H362Z" transform="translate(-312.508 -116.543)"/>
</svg>
