<svg id="phone-line" xmlns="http://www.w3.org/2000/svg" width="28" height="28" viewBox="0 0 28 28">
  <path id="Path_404" data-name="Path 404" d="M0,0H28V28H0Z" fill="none"/>
  <path id="Path_405" data-name="Path 405" d="M10.781,12.389a12.9,12.9,0,0,0,4.83,4.83l1.08-1.513a1.222,1.222,0,0,1,1.582-.362,13.96,13.96,0,0,0,5.6,1.667A1.222,1.222,0,0,1,25,18.23v5.454A1.222,1.222,0,0,1,23.9,24.9,18.956,18.956,0,0,1,3.1,4.1,1.222,1.222,0,0,1,4.316,3H9.77a1.222,1.222,0,0,1,1.219,1.126,13.96,13.96,0,0,0,1.667,5.6,1.222,1.222,0,0,1-.362,1.582l-1.513,1.08Zm-3.082-.8L10.02,9.928A16.39,16.39,0,0,1,8.68,5.444H5.457c-.007.2-.011.407-.011.611a16.5,16.5,0,0,0,16.5,16.5c.2,0,.408,0,.611-.012V19.32a16.39,16.39,0,0,1-4.483-1.341L16.414,20.3a15.207,15.207,0,0,1-1.941-.917l-.071-.04A15.346,15.346,0,0,1,8.655,13.6l-.04-.071A15.207,15.207,0,0,1,7.7,11.586Z" transform="translate(0)" fill="#0d1943"/>
</svg>
