<svg xmlns="http://www.w3.org/2000/svg" width="74.667" height="76.635" viewBox="0 0 74.667 76.635">
  <g id="success" transform="translate(-2 -1.419)">
    <path id="Path_535" data-name="Path 535" d="M51.356,33.889V18.333A4.36,4.36,0,0,0,47,13.978a4.31,4.31,0,0,0-2.089.558,4.291,4.291,0,0,0-6.222-2.489,4.327,4.327,0,0,0-8.266,0,4.31,4.31,0,0,0-2.089-.558,4.36,4.36,0,0,0-4.356,4.356v1.992A6.233,6.233,0,0,0,19,23.933v9.956a11.148,11.148,0,0,0,6.222,10.035v6.143H23.978a1.244,1.244,0,0,0-1.244,1.244V74.956A1.244,1.244,0,0,0,23.978,76.2h22.4a1.244,1.244,0,0,0,1.244-1.244V51.311a1.244,1.244,0,0,0-1.244-1.244H45.133V43.925A11.152,11.152,0,0,0,51.356,33.889ZM47,16.467a1.869,1.869,0,0,1,1.867,1.867v8.711a1.867,1.867,0,0,1-3.733,0V18.333A1.869,1.869,0,0,1,47,16.467Zm-6.222-2.489a1.869,1.869,0,0,1,1.867,1.867v11.2a1.867,1.867,0,1,1-3.733,0v-11.2A1.869,1.869,0,0,1,40.778,13.978Zm-8.089-.622a1.867,1.867,0,1,1,3.733,0V27.045a1.867,1.867,0,1,1-3.733,0V25.985a4.33,4.33,0,0,0,0-7.838V13.356ZM30.2,27.045a1.869,1.869,0,0,1-1.867,1.867,1.841,1.841,0,0,1-.622-.112V26.422H30.2ZM28.333,13.978A1.869,1.869,0,0,1,30.2,15.844v1.867H26.467V15.844A1.869,1.869,0,0,1,28.333,13.978Zm16.8,38.578v2.489H25.222V52.556ZM25.222,73.711V57.534H45.133V73.711Zm2.489-23.645V43.12a1.245,1.245,0,0,0-.778-1.154,8.679,8.679,0,0,1-5.444-8.078V23.933A3.738,3.738,0,0,1,25.222,20.2h5.6a1.867,1.867,0,1,1,0,3.733H26.467a1.244,1.244,0,0,0-1.244,1.244v7.467a1.244,1.244,0,0,0,1.244,1.244,6.229,6.229,0,0,1,6.222,6.222h2.489a8.725,8.725,0,0,0-7.467-8.623V31.35a4.5,4.5,0,0,0,.622.05,4.337,4.337,0,0,0,3.111-1.317,4.334,4.334,0,0,0,6.222,0,4.334,4.334,0,0,0,6.222,0,4.289,4.289,0,0,0,4.978.88v2.926a8.678,8.678,0,0,1-5.444,8.078,1.245,1.245,0,0,0-.778,1.154v6.947Z" transform="translate(4.156 1.853)"/>
    <path id="Path_536" data-name="Path 536" d="M12.891,37.054H15.38A36.506,36.506,0,0,0,5.942,12.245L5.1,11.324,3.263,13.008l.845.921A34.486,34.486,0,0,1,12.891,37.054Z" transform="translate(0.309 2.421)"/>
    <path id="Path_537" data-name="Path 537" d="M62.271,13.929l.846-.921-1.833-1.684-.847.921A36.511,36.511,0,0,0,51,37.054h2.489A34.491,34.491,0,0,1,62.271,13.929Z" transform="translate(11.978 2.421)"/>
    <path id="Path_538" data-name="Path 538" d="M17.489,24.283A29.163,29.163,0,0,1,24.638,4.994L22.784,3.333A31.26,31.26,0,0,0,15,24.283v1.035h2.489Z" transform="translate(3.178 0.468)"/>
    <path id="Path_539" data-name="Path 539" d="M48.4,25.319h2.489V24.283a31.26,31.26,0,0,0-7.784-20.95L41.255,4.994A29.163,29.163,0,0,1,48.4,24.283Z" transform="translate(9.596 0.468)"/>
    <path id="Path_540" data-name="Path 540" d="M12.177,22.053h2.489v-.494A34.45,34.45,0,0,0,8.21,1.419L6.187,2.865a32,32,0,0,1,5.99,18.694Z" transform="translate(1.024)"/>
    <path id="Path_541" data-name="Path 541" d="M53.489,21.559a31.991,31.991,0,0,1,5.99-18.693L57.454,1.42A34.448,34.448,0,0,0,51,21.559v.494h2.489Z" transform="translate(11.978 0)"/>
    <path id="Path_542" data-name="Path 542" d="M4,23H6.489v2.489H4Z" transform="translate(0.489 5.275)"/>
    <path id="Path_543" data-name="Path 543" d="M6,25H8.489v2.489H6Z" transform="translate(0.978 5.764)"/>
    <path id="Path_544" data-name="Path 544" d="M4,27H6.489v2.489H4Z" transform="translate(0.489 6.253)"/>
    <path id="Path_545" data-name="Path 545" d="M2,25H4.489v2.489H2Z" transform="translate(0 5.764)"/>
    <path id="Path_546" data-name="Path 546" d="M58,23h2.489v2.489H58Z" transform="translate(13.689 5.275)"/>
    <path id="Path_547" data-name="Path 547" d="M60,25h2.489v2.489H60Z" transform="translate(14.178 5.764)"/>
    <path id="Path_548" data-name="Path 548" d="M58,27h2.489v2.489H58Z" transform="translate(13.689 6.253)"/>
    <path id="Path_549" data-name="Path 549" d="M56,25h2.489v2.489H56Z" transform="translate(13.2 5.764)"/>
    <path id="Path_550" data-name="Path 550" d="M47,33h2.489v2.489H47Z" transform="translate(11 7.72)"/>
    <path id="Path_551" data-name="Path 551" d="M49,35h2.489v2.489H49Z" transform="translate(11.489 8.209)"/>
    <path id="Path_552" data-name="Path 552" d="M47,37h2.489v2.489H47Z" transform="translate(11 8.698)"/>
    <path id="Path_553" data-name="Path 553" d="M45,35h2.489v2.489H45Z" transform="translate(10.511 8.209)"/>
    <path id="Path_554" data-name="Path 554" d="M15,33h2.489v2.489H15Z" transform="translate(3.178 7.72)"/>
    <path id="Path_555" data-name="Path 555" d="M17,35h2.489v2.489H17Z" transform="translate(3.667 8.209)"/>
    <path id="Path_556" data-name="Path 556" d="M15,37h2.489v2.489H15Z" transform="translate(3.178 8.698)"/>
    <path id="Path_557" data-name="Path 557" d="M13,35h2.489v2.489H13Z" transform="translate(2.689 8.209)"/>
    <path id="Path_558" data-name="Path 558" d="M35,4h2.489V6.489H35Z" transform="translate(8.067 0.631)"/>
    <path id="Path_559" data-name="Path 559" d="M24,6h2.489V8.489H24Z" transform="translate(5.378 1.12)"/>
    <path id="Path_560" data-name="Path 560" d="M11.764,40.87A16.158,16.158,0,0,0,7,52.373H9.489a13.681,13.681,0,0,1,4.035-9.742l.579-.577-1.76-1.761Z" transform="translate(1.222 9.503)"/>
    <path id="Path_561" data-name="Path 561" d="M53.053,40.292l-1.76,1.761.579.577a13.686,13.686,0,0,1,4.035,9.743H58.4a16.158,16.158,0,0,0-4.764-11.5Z" transform="translate(12.05 9.502)"/>
  </g>
</svg>
